<?xml version="1.0" encoding="UTF-8" standalone="no"?>
<!-- Generator: Adobe Illustrator 18.0.0, SVG Export Plug-In . SVG Version: 6.00 Build 0)  -->

<svg
   version="1.1"
   id="Capa_1"
   x="0px"
   y="0px"
   viewBox="0 0 238.32055 383.88725"
   xml:space="preserve"
   width="238.32056"
   height="383.88727"
   sodipodi:docname="pts-stickersvg_2024_v1.svg"
   inkscape:version="1.2.2 (b0a8486541, 2022-12-01)"
   inkscape:export-filename="pts-stickersvg_2023_v1.png"
   inkscape:export-xdpi="150.005"
   inkscape:export-ydpi="150.005"
   xmlns:inkscape="http://www.inkscape.org/namespaces/inkscape"
   xmlns:sodipodi="http://sodipodi.sourceforge.net/DTD/sodipodi-0.dtd"
   xmlns="http://www.w3.org/2000/svg"
   xmlns:svg="http://www.w3.org/2000/svg"
   xmlns:rdf="http://www.w3.org/1999/02/22-rdf-syntax-ns#"
   xmlns:cc="http://creativecommons.org/ns#"
   xmlns:dc="http://purl.org/dc/elements/1.1/"><sodipodi:namedview
   id="namedview42"
   pagecolor="#ffffff"
   bordercolor="#666666"
   borderopacity="1.0"
   inkscape:showpageshadow="2"
   inkscape:pageopacity="0.0"
   inkscape:pagecheckerboard="0"
   inkscape:deskcolor="#d1d1d1"
   showgrid="false"
   inkscape:zoom="1.5454084"
   inkscape:cx="45.942548"
   inkscape:cy="180.21126"
   inkscape:window-width="1920"
   inkscape:window-height="1043"
   inkscape:window-x="3286"
   inkscape:window-y="312"
   inkscape:window-maximized="1"
   inkscape:current-layer="Capa_1" /><metadata
   id="metadata51"><rdf:RDF><cc:Work
       rdf:about=""><dc:format>image/svg+xml</dc:format><dc:type
         rdf:resource="http://purl.org/dc/dcmitype/StillImage" /></cc:Work></rdf:RDF></metadata><defs
   id="defs49"><filter
     inkscape:collect="always"
     style="color-interpolation-filters:sRGB"
     id="filter5220"
     x="-0.06019197"
     y="-0.038402878"
     width="1.1203839"
     height="1.0768058"><feGaussianBlur
       inkscape:collect="always"
       stdDeviation="5.1310116"
       id="feGaussianBlur5222" /></filter></defs><path
   id="path868-3"
   style="color:#000000;font-style:normal;font-variant:normal;font-weight:normal;font-stretch:normal;font-size:medium;line-height:normal;font-family:sans-serif;font-variant-ligatures:normal;font-variant-position:normal;font-variant-caps:normal;font-variant-numeric:normal;font-variant-alternates:normal;font-feature-settings:normal;text-indent:0;text-align:start;text-decoration:none;text-decoration-line:none;text-decoration-style:solid;text-decoration-color:#000000;letter-spacing:normal;word-spacing:normal;text-transform:none;writing-mode:lr-tb;direction:ltr;text-orientation:mixed;dominant-baseline:auto;baseline-shift:baseline;text-anchor:start;white-space:normal;shape-padding:0;clip-rule:nonzero;display:inline;overflow:visible;visibility:visible;isolation:auto;mix-blend-mode:normal;color-interpolation:sRGB;color-interpolation-filters:linearRGB;solid-color:#000000;solid-opacity:1;vector-effect:none;fill:#ffffff;fill-opacity:1;fill-rule:nonzero;stroke:none;stroke-width:20;stroke-linecap:round;stroke-linejoin:round;stroke-miterlimit:4;stroke-dasharray:none;stroke-dashoffset:0;stroke-opacity:1;marker:none;paint-order:stroke fill markers;color-rendering:auto;image-rendering:auto;shape-rendering:auto;text-rendering:auto;enable-background:accumulate"
   d="M 114.89995,0.06998997 C 95.057928,0.57782397 75.060388,2.3892492 56.372023,9.3167143 42.860293,14.292479 30.049143,21.752369 20.083544,32.254937 11.733543,41.074132 5.6098345,52.279951 3.9458515,64.399362 c -1.6201,11.495425 0.973729,23.558523 7.3466765,33.281357 2.135077,3.331491 4.643186,6.422251 7.441406,9.218751 -4.79724,64.83433 -12.9104925,131.66988 -17.74185152,196.50142 -1.476043,12.30477 -2.14079498,28.88437 4.19153402,39.43606 7.0939375,12.01745 20.2238155,18.12152 32.1469175,25.33815 4.115372,2.39657 8.657503,3.98645 13.313549,4.93976 14.200988,3.37309 30.473835,6.51161 44.903565,8.74523 6.718862,1.00131 15.897972,1.92954 22.700742,2.02161 7.37802,0.0926 17.11825,-0.98726 24.41163,-1.96661 10.34943,-1.52222 22.64666,-3.38844 32.90363,-5.43797 5.48503,-1.13444 10.97796,-2.33547 16.29782,-4.10163 4.39729,-1.88795 8.44771,-4.46899 12.54275,-6.92095 10.30175,-6.42384 22.73318,-10.55154 29.17531,-20.95795 5.91853,-9.54239 5.02828,-24.95504 3.97632,-36.19177 -3.77023,-53.1714 -10.91662,-108.34067 -14.70597,-161.51127 -0.94295,-13.20428 -1.88589,-26.40856 -2.82883,-39.61283 9.09591,-8.881097 15.20452,-21.031321 15.95028,-33.801997 C 236.82343,60.135265 232.22481,46.81452 224.08048,36.423277 215.93668,25.830124 204.73446,17.913343 192.65971,12.382293 177.48809,5.4039922 160.94597,2.7639224 144.40066,1.0902114 134.60292,0.13422797 124.73954,-0.14912363 114.89995,0.06998997 Z"
   inkscape:label="background" /><path
   id="path957"
   style="color:#000000;font-style:normal;font-variant:normal;font-weight:normal;font-stretch:normal;font-size:medium;line-height:normal;font-family:sans-serif;font-variant-ligatures:normal;font-variant-position:normal;font-variant-caps:normal;font-variant-numeric:normal;font-variant-alternates:normal;font-feature-settings:normal;text-indent:0;text-align:start;text-decoration:none;text-decoration-line:none;text-decoration-style:solid;text-decoration-color:#000000;letter-spacing:normal;word-spacing:normal;text-transform:none;writing-mode:lr-tb;direction:ltr;text-orientation:mixed;dominant-baseline:auto;baseline-shift:baseline;text-anchor:start;white-space:normal;shape-padding:0;clip-rule:nonzero;display:inline;overflow:visible;visibility:visible;opacity:1;isolation:auto;mix-blend-mode:normal;color-interpolation:sRGB;color-interpolation-filters:linearRGB;solid-color:#000000;solid-opacity:1;vector-effect:none;fill:#d00063;fill-opacity:1;fill-rule:nonzero;stroke:none;stroke-width:20;stroke-linecap:round;stroke-linejoin:round;stroke-miterlimit:4;stroke-dasharray:none;stroke-dashoffset:0;stroke-opacity:1;marker:none;paint-order:stroke fill markers;filter:url(#filter5220);color-rendering:auto;image-rendering:auto;shape-rendering:auto;text-rendering:auto;enable-background:accumulate"
   inkscape:label="orange blur"
   d="m 118.13043,13.285744 c -18.371969,0.351705 -36.921719,2.419671 -54.348619,8.506428 -11.69999,4.09718 -22.96743,10.08029 -31.82527,18.875175 -6.7038,6.66291 -11.93448,15.133977 -13.54519,24.545241 -1.79276,9.801462 0.96582,20.261417 7.18306,28.022027 1.98585,2.58035 4.50148,4.69072 6.5575,7.205425 1.5335,2.33475 1.15314,5.26242 0.85349,7.88471 -4.73004,52.7043 -9.43749,105.41074 -14.07615,158.12311 -0.20776,2.59565 -0.58188,5.32274 -0.53307,7.98273 0.29845,9.7054 4.33055,18.9862 10.11593,26.66748 6.17027,8.38809 14.06417,15.64529 23.37808,20.39275 5.71879,2.29321 11.86713,3.10546 17.81022,4.60726 14.94418,3.34361 30.00438,6.4071 45.282789,7.71289 10.21576,0.62219 20.34867,-1.2305 30.40605,-2.75173 11.56097,-1.87289 23.09679,-3.98274 34.46664,-6.80711 3.59466,-0.97298 6.88776,-2.76879 10.022,-4.73979 8.59074,-5.10374 16.88961,-11.16073 22.81103,-19.32914 5.18171,-7.04304 8.41379,-15.72905 8.07102,-24.54384 -0.15839,-5.11725 -0.83165,-10.20001 -1.1998,-15.30353 -4.45218,-51.88505 -8.91593,-103.77026 -13.32926,-155.65789 -0.0378,-2.82617 1.73332,-5.326425 3.89678,-6.990175 8.2638,-7.62366 13.18973,-19.022571 12.20725,-30.312221 -0.83758,-10.289079 -5.95595,-19.917055 -13.18914,-27.157842 -8.46358,-8.622359 -19.33876,-14.493468 -30.64417,-18.502871 -17.29766,-6.091962 -35.73918,-8.132478 -53.99119,-8.415091 -2.1265,-0.03605 -4.25333,-0.03667 -6.37998,-0.014 z" /><path
   id="path5217"
   style="color:#000000;font-style:normal;font-variant:normal;font-weight:normal;font-stretch:normal;font-size:medium;line-height:normal;font-family:sans-serif;font-variant-ligatures:normal;font-variant-position:normal;font-variant-caps:normal;font-variant-numeric:normal;font-variant-alternates:normal;font-feature-settings:normal;text-indent:0;text-align:start;text-decoration:none;text-decoration-line:none;text-decoration-style:solid;text-decoration-color:#000000;letter-spacing:normal;word-spacing:normal;text-transform:none;writing-mode:lr-tb;direction:ltr;text-orientation:mixed;dominant-baseline:auto;baseline-shift:baseline;text-anchor:start;white-space:normal;shape-padding:0;clip-rule:nonzero;display:inline;overflow:visible;visibility:visible;opacity:1;isolation:auto;mix-blend-mode:normal;color-interpolation:sRGB;color-interpolation-filters:linearRGB;solid-color:#000000;solid-opacity:1;vector-effect:none;fill:#d00063;fill-opacity:1;fill-rule:nonzero;stroke:none;stroke-width:20;stroke-linecap:round;stroke-linejoin:round;stroke-miterlimit:4;stroke-dasharray:none;stroke-dashoffset:0;stroke-opacity:1;marker:none;paint-order:stroke fill markers;color-rendering:auto;image-rendering:auto;shape-rendering:auto;text-rendering:auto;enable-background:accumulate"
   inkscape:label="orange"
   d="m 115.5162,27.245669 c -7.38879,0.152881 -14.77574,0.594956 -22.113281,1.492188 -1.39658,0.178738 -3.02465,0.394284 -4.50616,0.61991 -4.20788,0.634033 -8.45788,1.459041 -12.52313,2.446496 -0.70809,0.172279 -1.52747,0.378176 -2.27388,0.577775 -11.24043,2.968393 -22.52108,7.490265 -31.75714,14.828688 -6.05121,4.819996 -11.3296,11.011878 -13.74242,18.466492 -1.60848,4.85789 -1.65593,10.233464 0.06,15.06963 1.26795,3.802569 3.62641,7.151078 6.49246,9.922209 2.44557,2.424499 5.0034,4.950113 6.16733,8.277089 1.68411,4.225124 1.67667,8.891234 1.0826,13.336364 -3.02951,32.54281 -5.84278,65.10524 -8.76038,97.65821 -1.94125,21.88171 -3.89856,43.76372 -5.76406,65.65101 0.0641,3.49195 0.83651,6.94942 2.08726,10.20277 0.23684,0.60333 0.6046,1.48437 0.9255,2.18464 2.74901,5.93347 6.89407,11.11786 11.4964,15.71844 3.71373,3.61258 7.91605,6.78519 12.60106,9.02394 5.22437,1.6792 10.65577,2.5649 15.97719,3.86957 8.11638,1.79412 16.11827,3.49005 24.31839,4.85735 6.021641,1.00818 12.098101,1.8337 18.232871,2.3461 4.62779,0.23906 9.41599,-0.11024 13.91344,-0.65043 6.05069,-0.78108 12.19719,-1.77078 18.27343,-2.76367 5.20265,-0.87852 10.37366,-1.81931 15.50548,-2.85276 4.25365,-0.88721 8.51994,-1.74646 12.72255,-2.85107 4.39112,-1.37035 8.18467,-4.05837 12.03765,-6.48474 1.70465,-1.12681 3.58521,-2.45493 5.27514,-3.79056 2.40383,-1.88994 4.6724,-3.95788 6.71896,-6.23181 0.57167,-0.64571 1.30992,-1.51207 1.90135,-2.28475 4.57069,-5.77334 7.18836,-13.30822 6.23265,-20.69379 -4.02066,-46.78772 -8.00887,-93.57827 -11.98523,-140.36977 -0.79729,-9.51548 -1.61824,-19.03064 -2.37422,-28.54856 0.005,-6.1087 3.33511,-11.828718 7.93467,-15.683726 1.13243,-1.051164 2.16633,-2.20621 3.09742,-3.438938 0.1634,-0.2313 0.62135,-0.848023 0.875,-1.240234 3.68475,-5.510585 5.26135,-12.523308 3.706,-19.023672 -1.68488,-7.704755 -6.60807,-14.346719 -12.56399,-19.352702 -1.77406,-1.513229 -3.79039,-2.997376 -5.64983,-4.221282 -2.42703,-1.609099 -5.1766,-3.14129 -7.62695,-4.345703 -0.66407,-0.325135 -1.5177,-0.723692 -2.07583,-0.981873 -8.9489,-4.05218 -18.51225,-6.605191 -28.17613,-8.258362 -1.3607,-0.232713 -2.84861,-0.459359 -4.24232,-0.65619 -7.31686,-1.033458 -14.83291,-1.559066 -22.13268,-1.752013 -3.12191,-0.07362 -6.24451,-0.0971 -9.36719,-0.07227 z" /><g
   id="g928"
   inkscape:label="shaker"
   transform="translate(-28.093772)"><path
     id="path5374"
     style="color:#000000;font-style:normal;font-variant:normal;font-weight:normal;font-stretch:normal;font-size:medium;line-height:normal;font-family:sans-serif;font-variant-ligatures:normal;font-variant-position:normal;font-variant-caps:normal;font-variant-numeric:normal;font-variant-alternates:normal;font-feature-settings:normal;text-indent:0;text-align:start;text-decoration:none;text-decoration-line:none;text-decoration-style:solid;text-decoration-color:#000000;letter-spacing:normal;word-spacing:normal;text-transform:none;writing-mode:lr-tb;direction:ltr;text-orientation:mixed;dominant-baseline:auto;baseline-shift:baseline;text-anchor:start;white-space:normal;shape-padding:0;clip-rule:nonzero;display:inline;overflow:visible;visibility:visible;opacity:1;isolation:auto;mix-blend-mode:normal;color-interpolation:sRGB;color-interpolation-filters:linearRGB;solid-color:#000000;solid-opacity:1;vector-effect:none;fill:#030000;fill-opacity:0.174606;fill-rule:nonzero;stroke:none;stroke-width:20;stroke-linecap:round;stroke-linejoin:round;stroke-miterlimit:4;stroke-dasharray:none;stroke-dashoffset:0;stroke-opacity:1;marker:none;paint-order:stroke fill markers;color-rendering:auto;image-rendering:auto;shape-rendering:auto;text-rendering:auto;enable-background:accumulate"
     d="m 149.47266,10.015625 c -49.987866,0 -82.407959,14.364448 -98.005863,34.992187 -7.798952,10.313869 -11.086501,22.455531 -9.054688,33.867188 1.693808,9.513254 7.034122,18.181839 15.003907,24.80078 L 42.708984,268.55859 c -2.182261,15.86118 5.20405,29.75943 13.634766,39.75586 4.250211,5.03954 8.875594,9.2159 13.304688,12.44532 4.429093,3.22941 8.270586,5.57339 13.066406,6.77148 5.644214,1.41008 46.471356,11.36647 65.015626,11.24414 8.58399,-0.0566 22.4325,-2.19432 35.94141,-4.58008 6.75445,-1.19288 13.2194,-2.45805 18.4121,-3.61719 2.59635,-0.57956 4.86578,-1.12939 6.79102,-1.66406 1.92524,-0.53468 2.98507,-0.60483 5.63672,-2.10351 4.12427,-2.33098 13.99473,-7.44773 22.71289,-15.82227 8.71816,-8.37455 16.84932,-21.20083 15.38672,-37.27148 l 0.006,0.0527 -14.5625,-169.88867 c 8.02584,-6.588152 13.53024,-15.19131 15.53515,-24.69336 2.37908,-11.275207 -0.3188,-23.482747 -7.67968,-33.914062 -14.72177,-20.86263 -46.44965,-35.257813 -96.4375,-35.257813 z m 0,8.5 c 48.32397,0 77.13488,14.146292 89.49218,31.658203 6.17869,8.755956 8.18249,18.376839 6.3086,27.257813 -1.83904,8.7158 -7.39675,16.667579 -16.0918,22.46289 l 14.96289,174.574219 0.002,0.0254 c 1.85761,12.6714 -4.47693,22.91249 -12.25976,30.37891 -7.80222,7.48502 -17.13412,12.37585 -21.71875,14.68359 -0.8971,0.45156 -2.11987,0.77155 -3.94922,1.2168 -1.82935,0.44525 -4.16923,0.94711 -6.87109,1.48437 -5.40375,1.07452 -12.24894,2.28756 -19.22071,3.4336 -6.97175,1.14604 -14.06718,2.22418 -19.96875,3.02343 -5.90155,0.79925 -10.53075,1.32547 -12.89062,1.35547 -2.44773,0.0311 -7.38646,-0.56837 -13.79883,-1.5039 -6.41237,-0.93552 -14.17588,-2.21883 -21.78711,-3.5918 -7.61123,-1.37296 -15.067034,-2.83454 -20.867187,-4.12891 -2.900076,-0.64719 -5.383528,-1.25099 -7.287109,-1.78906 -0.95179,-0.26904 -1.757883,-0.522 -2.416016,-0.76367 -0.658132,-0.24166 -1.134643,-0.41774 -1.638672,-0.79883 -3.576582,-2.70422 -11.720262,-8.5963 -18.439453,-16.83984 -6.694097,-8.21274 -12.060878,-18.92636 -9.875,-31.16407 L 66.300781,99.71875 C 57.65656,93.9346 52.320623,86.030636 50.78125,77.384766 49.196375,68.483325 51.638497,58.873104 58.246094,50.134766 71.461287,32.658087 101.14867,18.515625 149.47266,18.515625 Z" /><path
     id="path5378"
     style="color:#000000;font-style:normal;font-variant:normal;font-weight:normal;font-stretch:normal;font-size:medium;line-height:normal;font-family:sans-serif;font-variant-ligatures:normal;font-variant-position:normal;font-variant-caps:normal;font-variant-numeric:normal;font-variant-alternates:normal;font-feature-settings:normal;text-indent:0;text-align:start;text-decoration:none;text-decoration-line:none;text-decoration-style:solid;text-decoration-color:#000000;letter-spacing:normal;word-spacing:normal;text-transform:none;writing-mode:lr-tb;direction:ltr;text-orientation:mixed;dominant-baseline:auto;baseline-shift:baseline;text-anchor:start;white-space:normal;shape-padding:0;clip-rule:nonzero;display:inline;overflow:visible;visibility:visible;opacity:1;isolation:auto;mix-blend-mode:normal;color-interpolation:sRGB;color-interpolation-filters:linearRGB;solid-color:#000000;solid-opacity:1;vector-effect:none;fill:#030000;fill-opacity:1;fill-rule:nonzero;stroke:none;stroke-width:20;stroke-linecap:round;stroke-linejoin:round;stroke-miterlimit:4;stroke-dasharray:none;stroke-dashoffset:0;stroke-opacity:1;marker:none;paint-order:stroke fill markers;color-rendering:auto;image-rendering:auto;shape-rendering:auto;text-rendering:auto;enable-background:accumulate"
     d="m 149.47266,21.515625 c -47.73673,0 -76.457799,14.063197 -88.832035,30.427734 -6.187118,8.18227 -8.333384,16.900533 -6.90625,24.916016 1.413585,7.939381 6.349425,15.25676 14.712891,20.6875 a 1.50015,1.50015 0 0 1 0.927734,1.439453 1.5002301,1.5002301 0 0 1 -0.0059,0.101563 1.5002301,1.5002301 0 0 1 -0.0078,0.08984 v 0.002 L 54.146484,269.75586 a 1.50015,1.50015 0 0 1 -0.01758,0.13672 c -2.042642,11.15681 2.819752,21.0021 9.230469,28.86719 6.410718,7.86508 14.275966,13.58322 17.921875,16.33984 -0.05262,-0.0398 0.321544,0.17927 0.865234,0.37891 0.54369,0.19964 1.29169,0.43542 2.197266,0.6914 1.811153,0.51195 4.257407,1.10811 7.125,1.74805 5.735187,1.27988 13.162212,2.73584 20.744142,4.10351 7.58192,1.36768 15.32277,2.64732 21.68945,3.57618 6.36672,0.92886 11.48276,1.49605 13.32813,1.47265 1.93323,-0.0246 6.6623,-0.53408 12.52539,-1.32812 5.86309,-0.79404 12.93755,-1.86777 19.88476,-3.00977 6.94721,-1.14201 13.76879,-2.35368 19.1211,-3.41797 2.67615,-0.53215 4.98709,-1.02648 6.74805,-1.45507 1.76095,-0.4286 3.06776,-0.8612 3.30859,-0.98243 4.51886,-2.27462 13.58165,-7.06059 20.99023,-14.16797 7.40855,-7.10737 13.08598,-16.34128 11.36133,-27.86328 a 1.50015,1.50015 0 0 1 -0.0117,-0.0937 l -15,-174.999997 a 1.50015,1.50015 0 0 1 0.17578,-0.886719 1.50015,1.50015 0 0 1 0.72657,-1.154296 C 235.4681,92.261512 240.6423,84.84845 242.33789,76.8125 244.03348,68.77655 242.27509,60.068949 236.51367,51.904297 224.99085,35.574942 197.20938,21.515625 149.47266,21.515625 Z m 0,8.5 c 46.07284,0 70.93733,13.810481 80.0957,26.789063 4.57918,6.489291 5.64352,12.612191 4.45312,18.253906 -1.1904,5.641714 -4.80138,11.123331 -11.58398,15.519531 a 10.001,10.001 0 0 0 -4.64062,7.205078 10.001,10.001 0 0 0 -0.0215,0.126953 10.001,10.001 0 0 0 -0.002,0.02148 10.001,10.001 0 0 0 -0.084,2.544914 l 15,175 a 10.001,10.001 0 0 0 0.004,0.0527 c 0.79319,8.71531 -3.16629,15.11993 -9.32422,21.03515 -6.15793,5.91523 -13.94734,10.1483 -18.69922,12.83399 1.54213,-0.8716 0.24871,-0.1414 -1.14648,0.24609 -1.39519,0.38747 -3.41488,0.88234 -5.79688,1.41406 -4.76398,1.06344 -11.01728,2.29064 -17.5332,3.44141 -13.03185,2.30151 -27.92785,4.24655 -32.5957,4.27734 -7.95941,0.0525 -59.139924,-10.42674 -60.03516,-10.65039 0.02661,0.007 -3.020011,-1.2591 -6.130859,-3.52734 -3.110848,-2.26824 -6.676128,-5.47704 -9.798829,-9.17969 -6.245402,-7.40527 -10.274314,-16.27419 -9.085937,-24.3418 a 10.001,10.001 0 0 0 0.06641,-0.56835 L 77.699219,101.38086 A 10.001,10.001 0 0 0 77.179688,95.140625 10.001,10.001 0 0 0 77.021484,94.761719 10.001,10.001 0 0 0 76.978516,94.671875 10.001,10.001 0 0 0 72.0625,89.738281 C 66.035591,85.526866 63.022298,80.540441 62.101562,75.369141 61.121365,69.863875 62.424161,63.677049 67.419922,57.070312 77.411444,43.856838 103.3998,30.015625 149.47266,30.015625 Z" /><path
     style="color:#000000;font-style:normal;font-variant:normal;font-weight:normal;font-stretch:normal;font-size:medium;line-height:normal;font-family:sans-serif;font-variant-ligatures:normal;font-variant-position:normal;font-variant-caps:normal;font-variant-numeric:normal;font-variant-alternates:normal;font-feature-settings:normal;text-indent:0;text-align:start;text-decoration:none;text-decoration-line:none;text-decoration-style:solid;text-decoration-color:#000000;letter-spacing:normal;word-spacing:normal;text-transform:none;writing-mode:lr-tb;direction:ltr;text-orientation:mixed;dominant-baseline:auto;baseline-shift:baseline;text-anchor:start;white-space:normal;shape-padding:0;clip-rule:nonzero;display:inline;overflow:visible;visibility:visible;opacity:1;isolation:auto;mix-blend-mode:normal;color-interpolation:sRGB;color-interpolation-filters:linearRGB;solid-color:#000000;solid-opacity:1;vector-effect:none;fill:#030000;fill-opacity:1;fill-rule:nonzero;stroke:none;stroke-width:12.6919;stroke-linecap:round;stroke-linejoin:round;stroke-miterlimit:4;stroke-dasharray:none;stroke-dashoffset:0;stroke-opacity:1;marker:none;paint-order:stroke fill markers;color-rendering:auto;image-rendering:auto;shape-rendering:auto;text-rendering:auto;enable-background:accumulate"
     d="m 105.06525,130.08111 a 6.3465752,6.3465752 0 0 0 -6.128907,5.90625 L 86.346499,287.15142 a 6.3465752,6.3465752 0 1 0 12.648438,1.05273 L 111.58478,137.04204 a 6.3465752,6.3465752 0 0 0 -6.51953,-6.96093 z"
     id="path4567" /><path
     style="color:#000000;font-style:normal;font-variant:normal;font-weight:normal;font-stretch:normal;font-size:medium;line-height:normal;font-family:sans-serif;font-variant-ligatures:normal;font-variant-position:normal;font-variant-caps:normal;font-variant-numeric:normal;font-variant-alternates:normal;font-feature-settings:normal;text-indent:0;text-align:start;text-decoration:none;text-decoration-line:none;text-decoration-style:solid;text-decoration-color:#000000;letter-spacing:normal;word-spacing:normal;text-transform:none;writing-mode:lr-tb;direction:ltr;text-orientation:mixed;dominant-baseline:auto;baseline-shift:baseline;text-anchor:start;white-space:normal;shape-padding:0;clip-rule:nonzero;display:inline;overflow:visible;visibility:visible;opacity:1;isolation:auto;mix-blend-mode:normal;color-interpolation:sRGB;color-interpolation-filters:linearRGB;solid-color:#000000;solid-opacity:1;vector-effect:none;fill:#030000;fill-opacity:1;fill-rule:nonzero;stroke:none;stroke-width:13.1466;stroke-linecap:round;stroke-linejoin:round;stroke-miterlimit:4;stroke-dasharray:none;stroke-dashoffset:0;stroke-opacity:1;marker:none;paint-order:stroke fill markers;color-rendering:auto;image-rendering:auto;shape-rendering:auto;text-rendering:auto;enable-background:accumulate"
     d="m 147.55549,135.75689 a 6.57394,6.57394 0 0 0 -6.47461,6.66601 v 157.0586 a 6.57394,6.57394 0 1 0 13.14648,0 V 142.4229 a 6.57394,6.57394 0 0 0 -6.67187,-6.66601 z"
     id="path4569" /><path
     style="color:#000000;font-style:normal;font-variant:normal;font-weight:normal;font-stretch:normal;font-size:medium;line-height:normal;font-family:sans-serif;font-variant-ligatures:normal;font-variant-position:normal;font-variant-caps:normal;font-variant-numeric:normal;font-variant-alternates:normal;font-feature-settings:normal;text-indent:0;text-align:start;text-decoration:none;text-decoration-line:none;text-decoration-style:solid;text-decoration-color:#000000;letter-spacing:normal;word-spacing:normal;text-transform:none;writing-mode:lr-tb;direction:ltr;text-orientation:mixed;dominant-baseline:auto;baseline-shift:baseline;text-anchor:start;white-space:normal;shape-padding:0;clip-rule:nonzero;display:inline;overflow:visible;visibility:visible;opacity:1;isolation:auto;mix-blend-mode:normal;color-interpolation:sRGB;color-interpolation-filters:linearRGB;solid-color:#000000;solid-opacity:1;vector-effect:none;fill:#030000;fill-opacity:1;fill-rule:nonzero;stroke:none;stroke-width:12.6991;stroke-linecap:round;stroke-linejoin:round;stroke-miterlimit:4;stroke-dasharray:none;stroke-dashoffset:0;stroke-opacity:1;marker:none;paint-order:stroke fill markers;color-rendering:auto;image-rendering:auto;shape-rendering:auto;text-rendering:auto;enable-background:accumulate"
     d="m 192.37971,130.0772 a 6.3502028,6.3502028 0 0 0 -6.47071,6.83789 l 9.56446,151.33984 a 6.3502028,6.3502028 0 1 0 12.67383,-0.80078 l -9.56446,-151.33984 a 6.3502028,6.3502028 0 0 0 -6.20312,-6.03711 z"
     id="path4571" /><path
     style="color:#000000;font-style:normal;font-variant:normal;font-weight:normal;font-stretch:normal;font-size:medium;line-height:normal;font-family:sans-serif;font-variant-ligatures:normal;font-variant-position:normal;font-variant-caps:normal;font-variant-numeric:normal;font-variant-alternates:normal;font-feature-settings:normal;text-indent:0;text-align:start;text-decoration:none;text-decoration-line:none;text-decoration-style:solid;text-decoration-color:#000000;letter-spacing:normal;word-spacing:normal;text-transform:none;writing-mode:lr-tb;direction:ltr;text-orientation:mixed;dominant-baseline:auto;baseline-shift:baseline;text-anchor:start;white-space:normal;shape-padding:0;clip-rule:nonzero;display:inline;overflow:visible;visibility:visible;opacity:1;isolation:auto;mix-blend-mode:normal;color-interpolation:sRGB;color-interpolation-filters:linearRGB;solid-color:#000000;solid-opacity:1;vector-effect:none;fill:#030000;fill-opacity:1;fill-rule:nonzero;stroke:none;stroke-width:20;stroke-linecap:round;stroke-linejoin:round;stroke-miterlimit:4;stroke-dasharray:none;stroke-dashoffset:0;stroke-opacity:1;marker:none;paint-order:stroke fill markers;color-rendering:auto;image-rendering:auto;shape-rendering:auto;text-rendering:auto;enable-background:accumulate"
     d="m 127.65314,41.622125 a 10.001,10.001 0 1 0 0,20 10.001,10.001 0 1 0 0,-20 z"
     id="path4577" /><path
     style="color:#000000;font-style:normal;font-variant:normal;font-weight:normal;font-stretch:normal;font-size:medium;line-height:normal;font-family:sans-serif;font-variant-ligatures:normal;font-variant-position:normal;font-variant-caps:normal;font-variant-numeric:normal;font-variant-alternates:normal;font-feature-settings:normal;text-indent:0;text-align:start;text-decoration:none;text-decoration-line:none;text-decoration-style:solid;text-decoration-color:#000000;letter-spacing:normal;word-spacing:normal;text-transform:none;writing-mode:lr-tb;direction:ltr;text-orientation:mixed;dominant-baseline:auto;baseline-shift:baseline;text-anchor:start;white-space:normal;shape-padding:0;clip-rule:nonzero;display:inline;overflow:visible;visibility:visible;opacity:1;isolation:auto;mix-blend-mode:normal;color-interpolation:sRGB;color-interpolation-filters:linearRGB;solid-color:#000000;solid-opacity:1;vector-effect:none;fill:#030000;fill-opacity:1;fill-rule:nonzero;stroke:none;stroke-width:20;stroke-linecap:round;stroke-linejoin:round;stroke-miterlimit:4;stroke-dasharray:none;stroke-dashoffset:0;stroke-opacity:1;marker:none;paint-order:stroke fill markers;color-rendering:auto;image-rendering:auto;shape-rendering:auto;text-rendering:auto;enable-background:accumulate"
     d="m 167.65314,41.622125 a 10.001,10.001 0 1 0 0,20 10.001,10.001 0 1 0 0,-20 z"
     id="path4579" /><path
     style="color:#000000;font-style:normal;font-variant:normal;font-weight:normal;font-stretch:normal;font-size:medium;line-height:normal;font-family:sans-serif;font-variant-ligatures:normal;font-variant-position:normal;font-variant-caps:normal;font-variant-numeric:normal;font-variant-alternates:normal;font-feature-settings:normal;text-indent:0;text-align:start;text-decoration:none;text-decoration-line:none;text-decoration-style:solid;text-decoration-color:#000000;letter-spacing:normal;word-spacing:normal;text-transform:none;writing-mode:lr-tb;direction:ltr;text-orientation:mixed;dominant-baseline:auto;baseline-shift:baseline;text-anchor:start;white-space:normal;shape-padding:0;clip-rule:nonzero;display:inline;overflow:visible;visibility:visible;opacity:1;isolation:auto;mix-blend-mode:normal;color-interpolation:sRGB;color-interpolation-filters:linearRGB;solid-color:#000000;solid-opacity:1;vector-effect:none;fill:#030000;fill-opacity:1;fill-rule:nonzero;stroke:none;stroke-width:12;stroke-linecap:round;stroke-linejoin:round;stroke-miterlimit:4;stroke-dasharray:none;stroke-dashoffset:0;stroke-opacity:1;marker:none;paint-order:stroke fill markers;color-rendering:auto;image-rendering:auto;shape-rendering:auto;text-rendering:auto;enable-background:accumulate"
     d="m 92.266421,96.051812 a 6.0006,6.0006 0 0 0 -2.125,11.699218 c 39.624549,13.55827 77.834829,13.43136 113.921879,0.55469 A 6.0006,6.0006 0 1 0 200.0301,97.004937 C 166.41745,108.99869 131.41896,109.19214 94.026187,96.397515 a 6.0006,6.0006 0 0 0 -1.759766,-0.345703 z"
     id="path4575-3" /></g>

<g
   aria-label="   Pass the Salt"
   transform="rotate(-49.181209,81.33031,364.9656)"
   id="text8242"
   style="font-size:40px;line-height:1.25;letter-spacing:4px"
   inkscape:label="PTS text"><path
     d="m 55.058255,307.39874 0.642266,2.84849 11.628082,-2.62185 c 1.187752,5.26775 2.734743,8.85534 9.446253,7.34206 4.292245,-0.9678 6.835484,-3.50944 5.770907,-8.23091 l -1.187752,-5.26775 z m 1.488489,1.50957 -0.149569,-0.66335 24.153633,-5.44606 0.941404,4.17518 c 0.888614,3.94106 -1.326008,6.12158 -4.954906,6.93981 -6.516409,1.46929 -7.192325,-2.43772 -8.36248,-7.62743 z m 23.412245,-5.2789 -11.081796,2.49868 0.66866,2.96555 c 0.853422,3.78498 3.156369,4.90589 6.824287,4.07886 3.550858,-0.80063 5.128528,-2.71452 4.292702,-6.42146 z m -9.742876,3.3449 8.935674,-2.01478 0.457504,2.02906 c 0.66866,2.96556 -0.628211,4.48809 -3.476701,5.13036 -2.965551,0.66866 -4.807909,-0.22807 -5.494165,-3.27166 z"
     style="font-family:'Ostrich Sans Inline';-inkscape-font-specification:'Ostrich Sans Inline'"
     id="path43" /><path
     d="m 85.819852,319.0075 -27.570935,2.15192 0.893789,2.86377 7.905691,-0.58176 1.5254,4.88749 -6.868897,3.90372 0.893789,2.86377 23.91236,-13.87426 z m -15.952922,9.83969 -2.07359,-6.64393 -7.843674,0.64621 -0.226426,-0.72549 25.327835,-1.95468 0.166841,0.53457 -21.955273,12.76062 -0.214509,-0.68731 z m -1.338618,-6.7057 1.978252,6.33846 12.87149,-7.49517 z m 2.592106,4.68027 -1.14405,-3.66562 8.743297,-0.71746 z"
     style="font-family:'Ostrich Sans Inline';-inkscape-font-specification:'Ostrich Sans Inline'"
     id="path45" /><path
     d="m 80.331773,340.49896 c 0.942041,-2.73214 1.81023,-5.43352 3.841155,-6.2793 1.957073,-0.81502 4.012392,-0.45772 4.858172,1.5732 1.091826,2.62174 -1.637654,3.97509 -4.517875,5.17456 l 1.122581,2.69559 c 4.652665,-1.93761 8.166892,-4.00773 6.090886,-8.99273 -1.491649,-3.58181 -5.057606,-4.65324 -8.491715,-3.2231 -3.397184,1.41476 -5.093312,5.45753 -5.835441,8.6697 l 0.02155,-0.0523 c -0.646539,2.08912 -1.677809,4.81508 -3.634882,5.6301 -2.141703,0.89192 -3.916992,0.37467 -4.808906,-1.76703 -1.137959,-2.73252 1.293076,-4.17823 4.727186,-5.60837 l -1.122581,-2.69559 c -5.68659,2.36819 -8.222424,4.8108 -6.300196,9.42654 1.660804,3.98799 4.749857,4.95472 8.664004,3.32467 3.06485,-1.27636 4.280846,-4.59921 5.42299,-7.89131 z m -8.076418,-2.74611 c -2.510962,1.0457 -5.834389,2.9497 -4.311985,6.60536 1.184093,2.8433 3.467042,3.5391 6.273411,2.37039 2.06785,-0.86116 3.523817,-4.02397 4.24117,-6.35922 l 0.01538,0.0369 c 0.708241,-2.98141 2.201229,-6.6796 5.192228,-7.9252 2.843295,-1.1841 5.83391,-0.3497 7.064136,2.60437 1.537782,3.69259 -0.687171,5.52911 -4.527465,7.1284 l -0.261423,-0.62774 c 2.53251,-1.09799 5.615871,-2.64204 4.124222,-6.22386 -1.122581,-2.69559 -3.811715,-3.22224 -6.322677,-2.17654 -5.021923,2.09138 -3.820659,11.94699 -9.211842,14.19215 -3.286405,1.36862 -5.830873,0.56508 -7.214877,-2.75825 -1.55316,-3.72952 0.585697,-5.87682 4.647546,-7.56838 z"
     style="font-family:'Ostrich Sans Inline';-inkscape-font-specification:'Ostrich Sans Inline'"
     id="path47" /><path
     d="m 87.685095,356.05924 c 0.692536,-2.80578 1.314286,-5.57429 3.260925,-6.59927 1.875853,-0.98772 3.954975,-0.81669 4.97996,1.12995 1.323163,2.51294 -1.273558,4.10625 -4.034247,5.55986 l 1.360435,2.58372 c 4.459574,-2.34814 7.773402,-4.7259 5.257534,-9.50401 -1.807701,-3.43317 -5.455559,-4.17958 -8.747149,-2.44642 -3.256197,1.71452 -4.581907,5.89343 -5.032174,9.15932 l 0.01676,-0.054 c -0.456055,2.13879 -1.238014,4.94645 -3.113867,5.93416 -2.05282,1.08089 -3.867431,0.72538 -4.948324,-1.32744 -1.379071,-2.61911 0.912109,-4.27757 4.2037,-6.01073 l -1.360435,-2.58372 c -5.450591,2.86996 -7.756498,5.53071 -5.426987,9.95489 2.012699,3.82249 5.176169,4.50751 8.927874,2.53208 2.937656,-1.54679 3.849917,-4.96553 4.691391,-8.347 z m -8.29064,-2.0087 c -2.406755,1.26725 -5.545499,3.4624 -3.700526,6.96635 1.43498,2.7253 3.77125,3.21299 6.461152,1.79665 1.982033,-1.04363 3.147684,-4.32455 3.652132,-6.71485 l 0.01864,0.0354 c 0.437267,-3.03302 1.591645,-6.85048 4.458514,-8.36001 2.725296,-1.43498 5.778828,-0.87289 7.269716,1.95858 1.863609,3.53935 -0.18718,5.5685 -3.868099,7.50665 l -0.316813,-0.60169 c 2.423511,-1.32128 5.355531,-3.13634 3.54783,-6.56951 -1.360435,-2.58372 -4.086033,-2.86641 -6.492787,-1.59916 -4.813509,2.53451 -2.730843,12.24216 -7.898286,14.96303 -3.150017,1.65861 -5.756435,1.08714 -7.433683,-2.09827 -1.882246,-3.57474 0.05485,-5.90568 3.948128,-7.95565 z"
     style="font-family:'Ostrich Sans Inline';-inkscape-font-specification:'Ostrich Sans Inline'"
     id="path49" /><path
     d="m 111.23418,375.40625 2.66544,3.60081 2.34696,-1.7373 -7.06819,-9.54857 -2.34695,1.7373 2.66544,3.60081 -19.322187,14.30296 1.737298,2.34695 z m -2.86833,-5.69012 0.5787,-0.42838 5.75926,7.78032 -0.5787,0.42837 -2.66544,-3.6008 -19.32219,14.30296 -0.452173,-0.61085 19.322183,-14.30296 z"
     style="font-family:'Ostrich Sans Inline';-inkscape-font-specification:'Ostrich Sans Inline'"
     id="path51" /><path
     d="m 106.12041,406.96116 20.23439,-17.81604 -1.92964,-2.19156 -9.09646,8.00929 -4.15003,-4.71335 9.09647,-8.00929 -1.92963,-2.19156 -20.234388,17.81604 1.929628,2.19156 8.94636,-7.87712 4.15003,4.71335 -8.94636,7.87712 z m 3.47753,-16.81213 5.60386,6.36453 9.12649,-8.03572 0.50223,0.5704 -18.58321,16.36221 -0.50223,-0.57041 8.94636,-7.87712 -5.60386,-6.36452 -8.94636,7.87712 -0.449368,-0.51036 18.583208,-16.36221 0.44937,0.51036 z"
     style="font-family:'Ostrich Sans Inline';-inkscape-font-specification:'Ostrich Sans Inline'"
     id="path53" /><path
     d="m 122.46261,402.42618 6.37597,-6.63228 5.70952,5.48887 1.99596,-2.07619 -7.78572,-7.48482 -18.68434,19.43546 7.78572,7.48482 2.02367,-2.10502 -5.70952,-5.48888 6.26507,-6.51693 3.80635,3.65925 2.02368,-2.10503 z m 6.35465,-9.14965 6.17091,5.93242 -0.49899,0.51905 -5.68069,-5.46115 -7.90065,8.21826 3.80635,3.65925 -0.47127,0.49021 -3.80635,-3.65925 -7.81748,8.13175 5.68069,5.46115 -0.47127,0.49021 -6.1709,-5.93241 z"
     style="font-family:'Ostrich Sans Inline';-inkscape-font-specification:'Ostrich Sans Inline'"
     id="path55" /><path
     d="m 147.49492,423.94899 c -0.64547,-2.81698 -1.33735,-5.5688 -0.061,-7.36073 1.2299,-1.72677 3.16321,-2.51055 4.95514,-1.23423 2.31322,1.64761 0.71249,4.23976 -1.09757,6.78104 l 2.37838,1.69402 c 2.92393,-4.10514 4.81159,-7.72066 0.41322,-10.85344 -3.16032,-2.25096 -6.75338,-1.2743 -8.91152,1.75569 -2.13493,2.99741 -1.43628,7.32554 -0.36727,10.44419 l -0.009,-0.0558 c 0.55618,2.11496 1.12266,4.9739 -0.10725,6.70067 -1.34593,1.88967 -3.12618,2.3896 -5.01585,1.04366 -2.41096,-1.71722 -1.11236,-4.22992 1.04578,-7.25991 l -2.37838,-1.69402 c -3.57369,5.0174 -4.43399,8.43159 -0.36142,11.33231 3.5187,2.50623 6.65165,1.69294 9.11146,-1.7606 1.92608,-2.70419 1.20069,-6.1674 0.42889,-9.56544 z m -8.30678,1.94087 c -1.57799,2.21548 -3.39157,5.5891 -0.1661,7.88647 2.5087,1.78684 4.81423,1.16996 6.57787,-1.30616 1.29952,-1.82451 0.86244,-5.27881 0.23618,-7.64012 l 0.0326,0.0232 c -0.97573,-2.90488 -1.66455,-6.83313 0.21512,-9.47215 1.78685,-2.5087 4.76627,-3.38224 7.37271,-1.52577 3.25805,2.32057 2.34105,5.05595 -0.0724,8.44433 l -0.55386,-0.3945 c 1.56861,-2.27126 3.36883,-5.21242 0.20852,-7.46339 -2.37838,-1.69402 -4.93917,-0.71875 -6.51717,1.49673 -3.15598,4.43095 3.07598,12.16003 -0.31207,16.91679 -2.06531,2.89967 -4.64977,3.56343 -7.58202,1.47491 -3.29063,-2.34379 -2.61106,-5.29739 -0.0584,-8.88125 z"
     style="font-family:'Ostrich Sans Inline';-inkscape-font-specification:'Ostrich Sans Inline'"
     id="path57" /><path
     d="m 166.3916,421.36145 -18.90134,20.18729 2.59163,1.51111 5.44358,-5.76245 4.42304,2.57896 -2.43728,7.51535 2.59163,1.51111 8.29294,-26.37277 z m -5.13888,18.02518 -6.01257,-3.50578 -5.35432,5.7682 -0.65654,-0.38281 17.37852,-18.52854 0.48378,0.28207 -7.59945,24.23047 -0.622,-0.36267 z m -5.51169,-4.04717 5.73614,3.34459 4.44571,-14.21578 z m 5.07071,1.70642 -3.31728,-1.93423 5.97035,-6.42766 z"
     style="font-family:'Ostrich Sans Inline';-inkscape-font-specification:'Ostrich Sans Inline'"
     id="path59" /><path
     d="m 176.95768,427.22141 -11.81901,24.23123 8.08906,3.94552 1.2801,-2.62445 -5.50056,-2.68295 10.53891,-21.60678 z m -9.4121,23.40252 5.50056,2.68295 -0.2981,0.61118 -6.14769,-2.99859 10.85455,-22.25391 0.64713,0.31564 z"
     style="font-family:'Ostrich Sans Inline';-inkscape-font-specification:'Ostrich Sans Inline'"
     id="path61" /><path
     d="m 190.31433,436.44673 4.14952,1.68875 1.1007,-2.7046 -11.00364,-4.4782 -1.1007,2.7046 4.14952,1.68875 -9.06194,22.26663 2.7046,1.1007 z m -5.40963,-3.36759 0.27141,-0.66689 8.96593,3.6489 -0.27141,0.66689 -4.14952,-1.68875 -9.06194,22.26663 -0.70394,-0.28648 9.06194,-22.26663 z"
     style="font-family:'Ostrich Sans Inline';-inkscape-font-specification:'Ostrich Sans Inline'"
     id="path63" /></g></svg>
