<?xml version="1.0" encoding="UTF-8" standalone="no"?>
<!-- Created with Inkscape (http://www.inkscape.org/) -->

<svg
   version="1.1"
   id="svg2401"
   width="686.83636"
   height="130.03636"
   viewBox="0 0 686.83636 130.03636"
   sodipodi:docname="logo_randorisec.svg"
   inkscape:version="1.2.2 (b0a8486541, 2022-12-01)"
   xmlns:inkscape="http://www.inkscape.org/namespaces/inkscape"
   xmlns:sodipodi="http://sodipodi.sourceforge.net/DTD/sodipodi-0.dtd"
   xmlns="http://www.w3.org/2000/svg"
   xmlns:svg="http://www.w3.org/2000/svg">
  <defs
     id="defs2405" />
  <sodipodi:namedview
     id="namedview2403"
     pagecolor="#ffffff"
     bordercolor="#666666"
     borderopacity="1.0"
     inkscape:showpageshadow="2"
     inkscape:pageopacity="0.0"
     inkscape:pagecheckerboard="0"
     inkscape:deskcolor="#d1d1d1"
     showgrid="false"
     inkscape:zoom="0.94418414"
     inkscape:cx="102.20464"
     inkscape:cy="70.960735"
     inkscape:window-width="1920"
     inkscape:window-height="1011"
     inkscape:window-x="0"
     inkscape:window-y="752"
     inkscape:window-maximized="1"
     inkscape:current-layer="g2407" />
  <g
     inkscape:groupmode="layer"
     inkscape:label="Image"
     id="g2407">
    <g
       id="g2528">
      <path
         style="fill:#eb212b;stroke-width:1"
         d="m 539.1017,108.09076 c -0.11895,-0.31007 -0.16189,-3.59916 -0.0954,-7.30909 l 0.12096,-6.745309 2.4,-0.113119 c 1.32,-0.06222 2.84588,-0.214245 3.39081,-0.337845 l 0.99085,-0.224728 -0.11813,-8.82579 -0.11808,-8.82579 -3.39202,-0.127632 -3.39208,-0.127628 0.11935,-7.508736 0.1193,-7.508731 3.34625,-0.126807 3.34626,-0.126803 0.30554,-3.260701 c 0.35114,-3.74736 0.11398,-11.061089 -0.38487,-11.867507 -0.22678,-0.366637 -1.54495,-0.545454 -4.02074,-0.545454 h -3.68335 v -8.509091 -8.509091 h 29.45455 29.45454 v 8.290909 8.290909 l -16.25454,0.0067 c -9.48079,0.0039 -16.52732,0.17911 -16.90909,0.42045 -0.53573,0.338657 -0.65455,1.637812 -0.65455,7.156952 0,3.708755 0.12332,6.866509 0.27404,7.017238 0.15072,0.150724 5.68193,0.394285 12.29157,0.541244 l 12.0175,0.267198 0.18397,1.349664 c 0.10115,0.742316 0.1663,4.295119 0.14479,7.895118 l -0.0393,6.545455 -12.43637,0.218182 -12.43636,0.218181 v 8.509091 8.509091 l 19.7146,0.113515 19.71461,0.113516 0.27469,2.286484 c 0.15107,1.257565 0.21403,4.642848 0.13989,7.522845 l -0.1347,5.23636 -3.05455,0.27307 c -1.68,0.15019 -15.9716,0.29746 -31.75915,0.32728 -23.0976,0.0436 -28.74685,-0.0559 -28.92096,-0.50958 z M 636,107.36284 c -5.15525,-1.12179 -10.96543,-4.01064 -14.49356,-7.20629 -5.45721,-4.942967 -10.895,-13.633638 -12.56653,-20.083825 -1.57458,-6.07625 -1.58282,-14.203924 -0.0236,-23.182524 0.68042,-3.917647 1.15828,-5.888195 3.84903,-15.87202 1.10858,-4.113242 1.3498,-5.826741 1.33758,-9.501897 l -0.0148,-4.483715 23.17409,0.120079 23.1741,0.120079 2.9338,1.389809 c 6.79898,3.220815 10.80746,9.611548 11.88563,18.949234 l 0.28268,2.44814 -1.66015,0.274333 c -2.10065,0.347123 -11.81463,0.357347 -13.09606,0.01379 -0.58464,-0.156755 -1.14694,-0.815123 -1.43083,-1.675326 -0.2572,-0.779403 -0.96843,-1.887784 -1.58043,-2.463077 l -1.11272,-1.045985 -13.07285,-0.127523 -13.07284,-0.127519 -1.55472,3.400246 c -4.16012,9.098535 -5.95174,17.108967 -5.03027,22.491071 1.23709,7.225497 7.03165,15.340359 13.07891,18.316028 2.86385,1.409205 2.99201,1.429496 9.02204,1.428366 5.86917,-0.0013 6.22293,-0.05274 8.73508,-1.275133 1.82662,-0.888807 3.78174,-2.455811 6.46678,-5.182974 2.1394,-2.172982 4.00952,-3.738406 4.21091,-3.524872 0.19928,0.21127 2.55918,3.133218 5.24421,6.493218 l 4.88191,6.10909 -3.20191,3.019628 c -4.02322,3.794212 -9.23978,7.691709 -12.2403,9.145269 -3.85789,1.8689 -7.09671,2.49956 -13.87069,2.70085 -5.16537,0.1535 -7.04845,0.0311 -10.25455,-0.66655 z m -152.50909,0.0109 c -3.46176,-1.05684 -7.74729,-4.25674 -9.03443,-6.74584 -0.76761,-1.484415 -1.71059,-15.875626 -1.08149,-16.504762 0.19423,-0.194217 3.45971,-0.399565 7.25664,-0.456327 l 6.90349,-0.1032 0.77913,2.371623 c 1.28893,3.923433 1.32415,3.934726 12.31763,3.945945 8.37858,0.0086 9.53686,-0.07434 9.77686,-0.699744 0.3778,-0.984541 -0.30114,-1.973481 -5.56612,-8.107802 -11.46437,-13.357278 -30.41049,-35.99259 -30.78777,-36.782748 -0.24563,-0.514464 -0.32003,-4.186647 -0.18122,-8.945455 l 0.23546,-8.072727 22.45715,-0.113104 c 25.16627,-0.126748 24.97702,-0.146152 28.45776,2.917701 3.35284,2.951293 4.71115,7.185711 4.71814,14.708146 0.004,3.313012 -0.062,3.56661 -0.97851,3.812221 -0.54,0.144716 -4.03509,0.265802 -7.76688,0.269079 l -6.78506,0.0059 -0.5167,-1.428851 c -1.01572,-2.808999 -2.25133,-3.135643 -12.46045,-3.294074 -7.69073,-0.119345 -9.06999,-0.04538 -8.94545,0.479712 0.081,0.34145 8.42548,8.709203 18.54327,18.595008 14.18413,13.858886 18.56967,18.394782 19.15453,19.811196 1.57462,3.813338 1.07359,13.560851 -0.88909,17.296683 -1.62672,3.09647 -6.42022,6.11907 -11.11658,7.00971 -2.6781,0.5079 -32.83968,0.53557 -34.49031,0.0316 z"
         id="path2532"
         sodipodi:nodetypes="cscsscccccccccssscccccccssssscsccccccccsscssccsssssscccsscsssscccssscsssscssssscssscsssssscsscsscssssssscc" />
      <path
         style="fill:#16123e;stroke-width:1"
         d="m 60.987316,108.00028 c -2.560364,-0.95035 -5.0819,-2.88228 -8.62368,-6.60723 -3.888524,-4.089621 -6.841937,-8.302808 -10.244734,-14.614603 l -2.50136,-4.639732 -4.208771,1.954468 c -2.314824,1.07496 -4.405135,2.141455 -4.645135,2.369987 -0.25423,0.242086 -0.52743,4.732355 -0.654545,10.757991 L 29.890909,107.56363 H 21.818182 13.745454 L 13.633494,76.036362 13.521534,44.50909 h -1.914081 c -1.34285,0 -1.9931272,-0.20599 -2.1789488,-0.690236 C 9.2828269,43.439226 9.1636363,39.511953 9.1636363,35.091583 V 27.054545 L 37.2,27.055243 c 31.391729,7.42e-4 29.675232,-0.167585 32.343569,3.172072 1.216674,1.522779 1.346169,2.030547 1.736627,6.809567 0.269167,3.294501 0.27254,8.574877 0.0093,14.585197 l -0.4126,9.421099 -1.729366,3.392483 c -2.022213,3.966968 -3.881136,5.577294 -10.127367,8.773007 -2.2189,1.135244 -4.035264,2.217072 -4.036363,2.404063 -0.0035,0.625567 5.736811,9.241405 7.130832,10.702599 2.095522,2.196502 5.21602,4.019847 8.700602,5.083876 l 3.14839,0.96137 v 8.037904 8.0379 l -5.672728,0.0846 c -3.948803,0.0589 -6.168344,-0.0993 -7.303592,-0.52071 z M 40.939752,63.233095 c 13.139993,-5.138592 13.781561,-5.80954 13.52295,-14.142187 l -0.13543,-4.363637 -11.82285,-0.115981 -11.822851,-0.115981 -0.287862,6.676137 c -0.34072,7.902017 0.05682,16.159173 0.764782,15.884967 0.26283,-0.1018 4.664398,-1.822294 9.781261,-3.823318 z M 76.031891,107.68233 C 76.147409,107.13705 81.30298,94.025452 87.488718,78.545452 94.699837,60.499412 100.13959,46.146614 102.64845,38.54649 l 3.91294,-11.853509 4.10274,-0.307596 c 2.25652,-0.169177 6.13035,-0.169393 8.60853,-4.8e-4 l 4.50578,0.307115 3.83935,10.544899 c 2.11164,5.799693 8.65475,23.701261 14.54025,39.781261 5.88549,16.079999 10.79234,29.67818 10.90411,30.21818 l 0.20322,0.98182 h -8.11472 -8.11473 l -0.81047,-1.63636 c -0.44576,-0.9 -1.55908,-3.63934 -2.47404,-6.08742 -0.91496,-2.448075 -1.8797,-4.532619 -2.14385,-4.632315 -0.26416,-0.0997 -7.96162,-0.08193 -17.10548,0.03949 l -16.62518,0.220756 -2.65512,6.157019 -2.655116,6.15702 -8.372404,0.1187 -8.3724,0.11869 0.210031,-0.99142 z M 126.10909,80.947595 c 0,-0.164793 -6.75082,-17.962577 -9.68349,-25.529415 l -0.4228,-1.090909 -0.66671,1.263347 c -0.82878,1.570455 -5.82899,13.085018 -8.78384,20.227562 l -2.2114,5.345454 h 10.88412 c 5.98627,0 10.88412,-0.09722 10.88412,-0.216039 z m 298.9291,26.338965 C 419.81513,104.67657 412.98055,96.663737 408,87.311064 c -1.32,-2.478751 -2.63301,-4.597641 -2.9178,-4.708652 -0.28478,-0.111006 -2.49387,0.727663 -4.90909,1.863714 l -4.39129,2.065544 v 10.352343 10.352347 l -1.36364,0.27273 c -1.9666,0.39332 -14.02659,0.3233 -14.6698,-0.0852 -0.42244,-0.26828 -0.56731,-7.24477 -0.65454,-31.520588 l -0.11202,-31.176061 -1.96364,-0.218181 -1.96364,-0.218182 -0.11834,-8.627401 -0.11835,-8.6274 28.51619,0.11831 28.51619,0.11831 1.60619,1.225279 c 3.23239,2.465823 3.34423,3.041939 3.33838,17.193699 -0.006,13.831082 -0.17864,15.129469 -2.62719,19.723439 -1.68586,3.162995 -3.62793,4.720538 -9.58579,7.687811 -2.28,1.13554 -4.21114,2.121229 -4.29141,2.190423 -0.0803,0.06919 1.3098,2.351031 3.08907,5.070755 4.66011,7.1233 8.07652,9.920086 13.75058,11.256667 1.73996,0.409864 2.34943,0.766665 2.52458,1.477933 0.12699,0.515695 0.17481,4.177628 0.1063,8.137627 l -0.12458,7.2 -5.90687,0.1208 c -5.87492,0.12014 -5.92194,0.11327 -8.6913,-1.2706 z M 406.32495,63.299894 c 4.95873,-1.954107 9.67146,-3.988482 10.47273,-4.520837 2.51028,-1.667799 3.4205,-4.146 3.4205,-9.312846 V 45.00825 l -2.29091,-0.272116 c -1.26,-0.149664 -6.70909,-0.212884 -12.10909,-0.140487 L 396,44.727271 395.88292,55.409937 c -0.0644,5.875466 -0.0137,10.952204 0.11277,11.281641 0.12642,0.329432 0.47365,0.500478 0.77162,0.380103 0.29798,-0.120375 4.59892,-1.817681 9.55764,-3.771787 z M 205.82771,107.93679 c -0.16524,-0.16523 -0.30044,-1.75334 -0.30044,-3.52912 0,-1.77577 -0.22372,-3.64671 -0.49716,-4.15763 -0.27343,-0.51093 -6.80906,-8.401659 -14.5236,-17.534954 -7.71454,-9.1333 -14.70718,-17.437003 -15.5392,-18.452675 -0.83202,-1.015675 -1.65827,-1.850221 -1.83611,-1.854545 -0.17784,-0.0044 -0.3742,10.15395 -0.43636,22.57395 l -0.11302,22.581814 h -8.07273 -8.07273 L 156.2984,90.545452 c -0.0759,-9.36 -0.003,-27.478882 0.16123,-40.264188 l 0.29921,-23.246004 7.91149,0.118733 7.91149,0.118734 0.109,3.927272 c 0.0599,2.16 0.2044,4.342931 0.321,4.850957 0.21073,0.918182 31.29544,37.78139 32.09125,38.056853 0.26013,0.09004 0.45892,-8.593632 0.52945,-23.127272 l 0.11293,-23.271447 h 8.07273 8.07273 V 67.854544 108 l -7.88138,0.11861 c -4.33477,0.0652 -8.01658,-0.0166 -8.18182,-0.18182 z m 23.02087,-0.7151 c -0.11822,-0.30807 -0.16115,-4.08807 -0.0954,-8.4 l 0.11955,-7.839874 2.18181,-0.218182 2.18182,-0.218182 V 67.636362 44.727271 l -2.72727,-0.129914 -2.72727,-0.12991 v -8.706452 -8.70645 h 33.40242 33.40241 l -0.14353,24.10909 c -0.13788,23.158476 -0.18078,24.241548 -1.08791,27.468422 -2.04679,7.280902 -5.92426,13.915222 -11.3133,19.356977 -8.50091,8.584076 -13.40337,9.792786 -39.71897,9.792786 -10.39021,0 -13.30593,-0.12121 -13.47436,-0.56013 z m 32.43674,-16.746523 c 3.37021,-0.846275 6.99735,-3.156716 10.03165,-6.39003 2.60268,-2.773384 3.80863,-5.240243 4.47896,-9.162022 0.60337,-3.530038 1.07437,-22.681919 0.66495,-27.038836 l -0.3184,-3.38845 -12.5076,0.115723 -12.50761,0.115719 -0.1129,23.211089 -0.1129,23.211085 1.85836,0.134369 c 2.82647,0.204362 5.50184,-0.0494 8.52549,-0.808647 z m 185.55676,16.883043 c -0.56426,-0.35674 -0.6703,-5.47101 -0.81338,-39.220453 l -0.16451,-38.810213 1.24974,-0.258574 c 3.56165,-0.736933 16.12722,-2.44465 16.61385,-2.257904 0.45421,0.174294 0.56313,7.892989 0.56313,39.907706 0,35.501468 -0.0724,39.763998 -0.68571,40.377328 -0.5722,0.57221 -1.96267,0.68461 -8.4,0.67903 -4.24285,-0.003 -8.00626,-0.19128 -8.36312,-0.41692 z m -140.21642,-0.64497 c -2.90849,-1.03729 -4.81336,-3.05969 -5.74699,-6.10153 -0.56684,-1.846799 -0.66049,-7.216289 -0.66049,-37.867992 V 27.027658 L 332.4,27.150192 c 25.16089,0.0958 32.39503,0.244355 33.15912,0.680925 2.00079,1.143171 2.42206,2.84619 2.77625,11.223427 0.18266,4.32 0.34125,19.930909 0.35242,34.690908 0.0191,25.264189 -0.0273,26.941148 -0.79198,28.624988 -0.9481,2.08766 -2.79262,3.52876 -5.59676,4.37268 -2.91182,0.87633 -53.20815,0.84934 -55.67339,-0.0299 z m 44.54195,-39.416321 c 0.10613,-21.00521 0.066,-22.395111 -0.65455,-22.690909 -0.42219,-0.173306 -7.79487,-0.315102 -16.38374,-0.315102 -13.40631,0 -15.67467,0.09262 -16.02969,0.654545 -0.45375,0.718198 -0.60699,43.095691 -0.16004,44.260419 0.23873,0.622133 1.99806,0.683389 16.69091,0.581145 l 16.42404,-0.114292 z"
         id="path2530" />
    </g>
  </g>
</svg>
