<?xml version="1.0" encoding="UTF-8" standalone="no"?>
<svg
   viewBox="0 0 1061.3 292.8"
   version="1.1"
   id="svg12"
   sodipodi:docname="logo_ubicast_blue.svg"
   inkscape:version="1.2.2 (b0a8486541, 2022-12-01)"
   xmlns:inkscape="http://www.inkscape.org/namespaces/inkscape"
   xmlns:sodipodi="http://sodipodi.sourceforge.net/DTD/sodipodi-0.dtd"
   xmlns="http://www.w3.org/2000/svg"
   xmlns:svg="http://www.w3.org/2000/svg">
  <defs
     id="defs16" />
  <sodipodi:namedview
     id="namedview14"
     pagecolor="#ffffff"
     bordercolor="#666666"
     borderopacity="1.0"
     inkscape:showpageshadow="2"
     inkscape:pageopacity="0.0"
     inkscape:pagecheckerboard="0"
     inkscape:deskcolor="#d1d1d1"
     showgrid="false"
     inkscape:zoom="1.2220861"
     inkscape:cx="528.60434"
     inkscape:cy="146.47086"
     inkscape:window-width="1920"
     inkscape:window-height="1011"
     inkscape:window-x="0"
     inkscape:window-y="752"
     inkscape:window-maximized="1"
     inkscape:current-layer="svg12" />
  <g
     fill="#FFF"
     id="g6"
     style="fill:#2149b3;fill-opacity:1">
    <path
       d="M520.7 167.7c13.9-4.6 20.8-15 20.8-31.3 0-9.3-2-17.1-6-23.3-4-6.2-9-10.3-15-12.1-5.9-1.9-14.7-2.8-26.4-2.8h-49.8v145.5H494c12.1 0 21.4-1.1 28-3.3 6.6-2.2 12.1-6.5 16.6-13 4.5-6.5 6.7-14.5 6.7-23.9.2-18.1-8.1-30-24.6-35.8zm-45.6-46.1h12.8c8.8 0 14.5 1.7 17.2 5.2 2.7 3.4 4 7.4 4 11.8 0 4.8-1.3 9-4 12.7-2.7 3.7-9.2 5.6-19.6 5.6h-10.4v-35.3zm15.8 97h-15.7v-38.3h15.7c7.4 0 13 1.4 16.7 4.4 3.7 2.8 5.5 7.8 5.5 14.9-.1 12.7-7.5 19-22.2 19zM565 98h32v145.6h-32zM675.3 219.7c-7.2 0-12.6-3.3-16.2-10-3.6-6.7-5.4-19-5.4-36.8 0-20 2-33.4 5.9-40.4 3.9-6.9 9.2-10.4 15.8-10.4 12.6 0 19.3 10.8 20.1 32.3l29.1-2.1c-2.7-37.3-19.1-55.9-49.3-55.9-18.2 0-32 6.6-41.2 19.8-9.2 13.2-13.9 31.5-13.9 55 0 23.2 4.7 41.4 14 54.6 9.3 13.2 22.9 19.8 40.7 19.8 14.6 0 26.4-4.9 35.3-14.8 8.9-9.9 13.9-22.6 15-38.3l-29.4-1.8c-2.1 19.3-8.9 29-20.5 29zM776.6 98.2l-43.7 145.3h29.3l7.1-29.9h41.1l7.2 29.9h32.7L808.7 98.2h-32.1zm-1.1 90.5l14.2-59.7 14.7 59.7h-28.9zM941.4 165.1c-5.3-3.4-12.6-6.8-21.9-10.2-10.2-3.9-16.9-7.1-20.1-9.6-3.2-2.5-4.8-5.7-4.8-9.8 0-3.5 1.4-6.6 4.1-9.3 2.7-2.7 6.4-4 11.1-4 9.9 0 16.8 6 20.6 17.9l26.1-10c-6.2-22.4-21.8-33.6-46.9-33.6-13.8 0-24.8 4.1-33.1 12.4S864 127.8 864 140.8c0 7.6 1.8 14.4 5.3 20.4 3.5 5.9 8 10.5 13.4 13.7 5.4 3.2 13.7 6.8 24.8 10.7 8.6 3.1 14.1 6.1 16.5 8.9 2.4 2.8 3.6 5.9 3.6 9.5 0 4.6-1.7 8.4-5.2 11.3-3.4 2.8-7.9 4.3-13.4 4.3-12.1 0-19.8-7.3-23.2-21.9l-27.7 7.9c7.3 26.4 24 39.6 50.1 39.6 15.6 0 28-4.3 37.3-12.9 9.3-8.6 13.9-19.7 13.9-33.1 0-7.7-1.7-14.4-4.9-20.3-3.5-5.8-7.8-10.4-13.1-13.8zM969.5 98.1v27.2h27.9v118.4h33.2V125.3h29.7V98.1M390.7 179.4c0 10.7-.7 18-2.2 21.7-1.5 3.8-4.1 6.9-8 9.4-3.9 2.4-8.4 3.7-13.8 3.7-5.1 0-9.4-1.1-12.9-3.3-3.6-2.2-6.1-5.1-7.7-8.8-1.5-3.7-2.3-10-2.3-18.9V98.1h-30.5v77.1c0 19 1.8 32.5 5.5 40.5s9.8 14.6 18.4 20c8.6 5.3 18.6 8 30.2 8 8.8 0 16.6-1.4 23.2-4.2 6.7-2.8 12.5-7.1 17.6-12.8 5.1-5.8 8.5-11.8 10.3-18 1.8-6.2 2.7-17.3 2.7-33.4V98.1h-30.5v81.3zM90.4 150.7c0 .9 0 1.8.1 2.7.6 19.3 17.3 39 41.2 39 23.9 0 40.6-19.7 41.2-39 0-.9.1-1.8.1-2.7V68.1h42.3c-37.1-40.2-83.6-66.8-83.6-66.8S85.2 27.9 48 68.1h42.3v82.6z"
       id="path2"
       style="fill:#2149b3;fill-opacity:1" />
    <path
       d="M225.2 150.2c-2.2 58.2-47.8 91.5-93.5 91.5s-91.4-33.3-93.5-91.5V82.1C16 104.5 2.4 133.8 2.4 167.2c2.3 66.5 58.7 125 129.3 125s127.9-59.8 129.3-125c0-33.4-13.5-62.6-35.8-85.1v68.1z"
       id="path4"
       style="fill:#2149b3;fill-opacity:1" />
  </g>
  <path
     fill="none"
     d="M311.7 138.5h772.5v47.3H311.7z"
     id="path8" />
  <path
     fill="none"
     d="M0 320.8V0l1060.3 1.3v320.8"
     id="path10" />
</svg>
