<?xml version="1.0" encoding="UTF-8" standalone="no"?>
<!-- Created with Inkscape (http://www.inkscape.org/) -->

<svg
   version="1.1"
   id="svg2589"
   width="4154.8071"
   height="812.10065"
   viewBox="0 0 4154.8071 812.10066"
   sodipodi:docname="logo_opencyber_blue.svg"
   inkscape:version="1.2.2 (b0a8486541, 2022-12-01)"
   xmlns:inkscape="http://www.inkscape.org/namespaces/inkscape"
   xmlns:sodipodi="http://sodipodi.sourceforge.net/DTD/sodipodi-0.dtd"
   xmlns="http://www.w3.org/2000/svg"
   xmlns:svg="http://www.w3.org/2000/svg">
  <defs
     id="defs2593" />
  <sodipodi:namedview
     id="namedview2591"
     pagecolor="#ffffff"
     bordercolor="#666666"
     borderopacity="1.0"
     inkscape:showpageshadow="2"
     inkscape:pageopacity="0.0"
     inkscape:pagecheckerboard="0"
     inkscape:deskcolor="#d1d1d1"
     showgrid="false"
     inkscape:zoom="0.20308182"
     inkscape:cx="2139.5318"
     inkscape:cy="418.55051"
     inkscape:window-width="1920"
     inkscape:window-height="1011"
     inkscape:window-x="0"
     inkscape:window-y="752"
     inkscape:window-maximized="1"
     inkscape:current-layer="g2595" />
  <g
     inkscape:groupmode="layer"
     inkscape:label="Image"
     id="g2595"
     transform="translate(-168.44664,-107.8896)">
    <g
       id="g2716"
       transform="translate(-52.746123,9.3235509)">
      <path
         style="fill:#6be7bd;stroke-width:1"
         d="M 420,907.99722 C 369.92756,899.55076 326.83277,877.28324 290.77477,841.22525 255.17319,805.62367 234.32176,764.56757 224.46716,710.66669 222.35873,699.13441 222.10841,681.85 221.67205,517.66668 l -0.47929,-180.33334 h 60.07029 60.07028 v 167.85874 c 0,173.86806 0.35814,187.04574 5.53976,203.83724 10.03338,32.514 36.39427,61.41629 67.30467,73.79343 22.03464,8.82309 10.05224,8.30517 204.15557,8.82429 l 176.33334,0.47159 v 59.27402 59.27405 L 614.33333,910.51275 C 448.35863,910.37106 432.88528,910.17076 420,907.99722 Z m 28,-376.5226 c 0,-96.98386 0.51357,-158.96293 1.38933,-167.66667 7.4688,-74.22885 45.80014,-147.07089 102.46454,-194.71604 41.07033,-34.53319 88.80338,-56.7348 143.47946,-66.73522 15.81103,-2.891881 17.91006,-2.931548 177.72228,-3.358543 l 161.72229,-0.432098 -0.454,159.716991 c -0.4908,172.67203 -0.2675,166.94983 -7.7688,199.00367 -7.1762,30.6648 -24.0883,70.01949 -40.80097,94.94425 C 942.80761,616.28011 879.82309,660.27957 806,677.80284 c -30.96804,7.35082 -35.82771,7.53052 -203.65849,7.53052 H 448 Z m 320.10015,31.12077 c 79.7753,-14.33853 137.60472,-76.71743 145.1744,-156.59538 0.79882,-8.42954 1.39036,-51.38064 1.391,-101 l 10e-4,-86.33334 H 824.9492 c -109.71624,0 -117.85195,0.72598 -147.72891,13.18236 -47.8573,19.95279 -83.89732,58.33453 -100.30056,106.81765 -8.27674,24.46359 -8.0519,21.09405 -8.56348,128.33334 l -0.46908,98.33333 H 660.377 c 87.45821,0 93.31855,-0.14894 107.72303,-2.73796 z"
         id="path2720" />
      <path
         style="fill:#1d2f57;stroke-width:1"
         d="m 1358.6667,684.04926 c -69.8524,-8.95189 -117.6666,-52.58651 -131.2636,-119.78924 -4.9033,-24.23479 -4.8723,-64.44228 0.069,-88.85656 12.6476,-62.49477 52.9422,-103.05299 116.2446,-117.00531 17.8672,-3.93807 66.8889,-4.30181 84.2836,-0.62539 65.4833,13.84016 105.984,53.43363 119.2715,116.59978 7.7492,36.8382 4.1045,88.09931 -8.5022,119.58313 -18.5982,46.44694 -55.3644,76.2297 -108.1026,87.56955 -14.183,3.04964 -56.3611,4.52824 -72,2.52404 z m 55.2457,-63.84465 c 26.3316,-9.45846 43.5516,-33.98792 49.5585,-70.59527 3.0287,-18.4565 1.9272,-55.14515 -2.1298,-70.94266 -9.9827,-38.87136 -33.8214,-60.93497 -68.5808,-63.47393 -31.2831,-2.28504 -56.9648,12.66806 -70.5936,41.10294 -9.051,18.88379 -12.751,37.3691 -12.751,63.70433 0,61.30749 25.4275,99.79105 68.5843,103.79973 12.7323,1.18264 26.4285,-0.18846 35.9124,-3.59514 z M 2828,683.92266 C 2761.3555,675.76984 2712.9941,638.43665 2694.2421,580.66669 2687.3603,559.46543 2686,549.45304 2686,520.00002 c 0,-28.50623 1.1337,-37.4136 7.5519,-59.33334 13.163,-44.95505 52.2666,-83.13631 99.6322,-97.28191 21.5379,-6.43224 34.8778,-8.05666 65.4826,-7.97393 24.2897,0.0656 30.7325,0.52332 42.197,2.99747 15.641,3.37546 37.5324,10.73729 48.7151,16.38229 l 7.7545,3.91447 v 33.4242 33.4242 l -7,-4.20266 c -11.3294,-6.80197 -32.9937,-16.95744 -42.3333,-19.84444 -15.4687,-4.78158 -24.3487,-6.03984 -42.6667,-6.04561 -20.9717,-0.007 -33.5868,2.84333 -48,10.84392 -11.3561,6.30361 -25.957,21.17456 -32.429,33.02867 -17.5532,32.15063 -18.295,84.79068 -1.66,117.82318 11.6857,23.20477 29.9332,37.81029 55.4189,44.35806 14.1723,3.64116 40.5044,3.54247 57.8557,-0.21682 14.7911,-3.20462 35.1826,-11.67591 49.3288,-20.49286 5.4166,-3.37602 10.2167,-6.13822 10.667,-6.13822 0.4502,0 0.8186,14.99136 0.8186,33.31413 v 33.31415 l -7.6666,3.83816 c -9.429,4.7204 -27.4459,11.30508 -38.8982,14.21611 -20.977,5.33216 -59.2701,7.44806 -82.7685,4.57342 z M 1640,519.33335 V 360.00001 h 74.0525 c 78.5284,0 92.0691,0.7314 112.4247,6.07267 51.5503,13.52669 79.4567,52.90135 75.6779,106.77832 -2.6378,37.60751 -19.3634,64.40808 -50.1551,80.36671 -22.2809,11.54768 -40.3861,14.65118 -91.6667,15.71302 l -37.6666,0.77993 v 54.47801 54.47802 H 1681.3333 1640 Z m 145.7011,-13.82248 c 11.0709,-3.06991 18.3782,-7.99713 23.6392,-15.93953 5.5398,-8.36375 7.0406,-14.98118 6.404,-28.23799 -0.6622,-13.78808 -4.2655,-21.95866 -12.9624,-29.39258 -10.3603,-8.8557 -19.0443,-10.80332 -51.7819,-11.61354 l -28.3333,-0.70123 v 44.187 44.18702 h 27.0288 c 22.2918,0 28.6021,-0.43624 36.0056,-2.48915 z m 200.9656,13.82248 V 360.00001 H 2098 2209.3333 v 31.33334 31.33333 h -70 -70 v 29.33333 29.33334 H 2134.6667 2200 v 31.33333 31.33334 h -65.3333 -65.3334 v 36 36 h 72 72 v 31.33333 31.33334 H 2100 1986.6667 Z m 324,-0.0171 v -159.3504 l 46.8484,0.3504 46.8482,0.35039 21.218,40 c 11.6699,22 24.0655,45.4 27.5459,52 3.4804,6.6 19.5005,36.80629 35.6004,67.12511 L 2518,574.91689 2518.3412,467.45844 2518.6824,360 h 39.3255 39.3254 v 159.33334 159.33334 h -46.5062 -46.5063 l -56.4937,-106.53762 -56.4938,-106.53763 -0.3412,106.53763 -0.3413,106.53762 h -39.992 -39.9921 z m 817.318,93.01706 L 3127.97,546 3103.6519,509.01707 c -13.3755,-20.34061 -40.6686,-61.79164 -60.6519,-92.1134 -19.9833,-30.32176 -36.3333,-55.52944 -36.3333,-56.01707 0,-0.48763 20.3442,-0.88659 45.2096,-0.88659 h 45.2094 l 35.7182,55.91739 c 19.6449,30.75456 36.0769,55.6956 36.5156,55.42455 0.4385,-0.27105 16.671,-25.41928 36.0722,-55.88496 l 35.275,-55.39215 45.6666,-0.0324 c 25.1167,-0.0179 45.6667,0.21177 45.6667,0.51021 0,0.29844 -27.3,41.96234 -60.6667,92.58642 l -60.6666,92.04379 v 66.74692 66.74692 H 3169.3333 3128 l -0.016,-66.33333 z m 265.3486,-93.03852 V 359.78115 l 79,0.56716 c 85.6036,0.61457 92.5127,1.11454 115.6723,8.37042 29.8477,9.35131 46.5081,25.82902 52.8609,52.28126 3.1722,13.20876 2.804,35.85097 -0.7676,47.19993 -5.0952,16.19059 -15.514,28.67174 -31.0062,37.14368 l -6.4892,3.5487 5.6982,1.70086 c 20.5971,6.14799 39.7994,28.62662 45.6223,53.40686 2.6003,11.06545 2.6359,35.11276 0.071,47.33333 -2.9478,14.04004 -10.3396,27.91166 -19.8942,37.33334 -13.313,13.12789 -28.0992,20.25453 -54.7666,26.3964 -11.3499,2.61404 -16.7132,2.79036 -99,3.25459 l -87,0.49081 V 519.29482 Z m 151.1732,100.19071 c 21.7251,-6.11998 31.862,-23.55794 27.5902,-47.46171 -1.9135,-10.70741 -5.1176,-16.12446 -13.1707,-22.26672 -9.8981,-7.54955 -16.0544,-8.69558 -50.5927,-9.41835 l -31,-0.64872 v 41.633 41.633 L 3507,622.32501 c 21.9904,-0.46774 31.6952,-1.20246 37.5065,-2.83948 z m -6.2652,-138.81605 c 3.699,-1.09845 8.3475,-3.2732 10.3302,-4.83276 14.7637,-11.61318 15.2693,-39.25569 0.9192,-50.25592 -9.3792,-7.18979 -10.7991,-7.45641 -42.4907,-7.97953 l -29.6667,-0.48971 v 32.77756 32.77756 h 27.0914 c 20.1821,0 28.8065,-0.50934 33.8166,-1.9972 z m 215.092,38.66387 V 360.00001 H 3864.6667 3976 v 31.33334 31.33333 h -70 -70 v 29.32077 29.32077 l 65.6667,0.3459 65.6666,0.3459 0.3579,31 0.358,31 H 3902.0245 3836 v 36 36 h 72 72 v 31.33333 31.33334 H 3866.6667 3753.3333 Z M 4088,519.23162 V 359.79659 l 79,0.6067 c 82.0617,0.63024 85.8964,0.87146 108.724,6.8392 23.726,6.20263 42.9676,21.00948 51.4545,39.59548 6.4996,14.23388 8.1074,22.33371 8.0378,40.49535 -0.073,19.25452 -1.9291,28.79166 -8.1416,41.85179 -7.9394,16.6904 -27.7195,33.57292 -45.6182,38.93552 l -5.4365,1.62881 7.2156,2.93266 c 14.5827,5.92684 26.8903,18.02093 39.3333,38.65123 4.6444,7.70014 53.4311,105.25816 53.4311,106.8452 0,0.26848 -19.95,0.46661 -44.3333,0.44032 l -44.3334,-0.0479 -23.5169,-47.61885 c -20.166,-40.83358 -24.5747,-48.7792 -30.9399,-55.76214 C 4221.5659,562.78174 4209.2317,558.6981 4183,558.67667 l -12.3333,-0.01 v 60 60 H 4129.3333 4088 V 519.23164 Z m 132.1095,-19.79479 c 15.5273,-2.76999 22.9274,-7.32381 28.3353,-17.43684 2.4552,-4.5912 2.8545,-7.55973 2.8703,-21.33333 0.017,-15.14619 -0.1814,-16.33957 -3.722,-22.36311 -3.7727,-6.41806 -9.6816,-11.04276 -18.2598,-14.29136 -3.0821,-1.16724 -13.834,-1.96852 -31.6666,-2.35998 l -27,-0.59268 v 40.1369 40.13689 l 19.6666,-0.0465 c 10.8167,-0.0256 24.2159,-0.85807 29.7762,-1.84997 z"
         id="path2718" />
    </g>
  </g>
</svg>
