<?xml version="1.0" encoding="UTF-8" standalone="no"?>
<!-- Created with Inkscape (http://www.inkscape.org/) -->

<svg
   width="211.01315mm"
   height="28.231041mm"
   viewBox="0 0 211.01315 28.231041"
   version="1.1"
   id="svg1773"
   inkscape:version="1.2.2 (b0a8486541, 2022-12-01)"
   sodipodi:docname="logo_synacktiv_black2.svg"
   xmlns:inkscape="http://www.inkscape.org/namespaces/inkscape"
   xmlns:sodipodi="http://sodipodi.sourceforge.net/DTD/sodipodi-0.dtd"
   xmlns="http://www.w3.org/2000/svg"
   xmlns:svg="http://www.w3.org/2000/svg">
  <sodipodi:namedview
     id="namedview1775"
     pagecolor="#ffffff"
     bordercolor="#666666"
     borderopacity="1.0"
     inkscape:showpageshadow="2"
     inkscape:pageopacity="0.0"
     inkscape:pagecheckerboard="0"
     inkscape:deskcolor="#d1d1d1"
     inkscape:document-units="mm"
     showgrid="false"
     inkscape:zoom="0.74742565"
     inkscape:cx="830.18291"
     inkscape:cy="512.42555"
     inkscape:window-width="1920"
     inkscape:window-height="1011"
     inkscape:window-x="0"
     inkscape:window-y="752"
     inkscape:window-maximized="1"
     inkscape:current-layer="layer1" />
  <defs
     id="defs1770" />
  <g
     inkscape:label="Layer 1"
     inkscape:groupmode="layer"
     id="layer1"
     transform="translate(114.3564,-12.787936)">
    <rect
       class="cls-23"
       x="-114.3564"
       y="13.036644"
       width="8.1703329"
       height="8.1703329"
       id="rect54"
       style="fill:#000000;stroke-width:0.264583" />
    <rect
       class="cls-23"
       x="-114.3564"
       y="22.924124"
       width="8.1703329"
       height="8.1703329"
       id="rect56"
       style="fill:#000000;stroke-width:0.264583" />
    <rect
       class="cls-23"
       x="-114.3564"
       y="32.811604"
       width="8.1703329"
       height="8.1703329"
       id="rect58"
       style="fill:#000000;stroke-width:0.264583" />
    <rect
       class="cls-23"
       x="-104.63825"
       y="32.811604"
       width="8.1703329"
       height="8.1703329"
       id="rect60"
       style="fill:#000000;stroke-width:0.264583" />
    <rect
       class="cls-23"
       x="-104.63825"
       y="13.036644"
       width="8.1703329"
       height="8.1703329"
       id="rect62"
       style="fill:#000000;stroke-width:0.264583" />
    <circle
       class="cls-24"
       cx="-100.56102"
       cy="27.048977"
       r="4.140729"
       id="circle64"
       style="fill:#ff2222;stroke-width:0.264583" />
    <path
       class="cls-23"
       d="m -88.125605,40.447477 v -3.439583 q 4.328583,0.441854 7.215187,0.441854 a 16.348604,16.348604 0 0 0 2.910417,-0.201083 4.1089791,4.1089791 0 0 0 1.703916,-0.682625 2.3045208,2.3045208 0 0 0 0.740834,-1.30175 11.194521,11.194521 0 0 0 0.179916,-2.264834 12.3825,12.3825 0 0 0 -0.179916,-2.547937 1.6218958,1.6218958 0 0 0 -0.79375,-1.082146 6.2600416,6.2600416 0 0 0 -2.04523,-0.529167 l -5.373687,-0.722312 q -2.116667,-0.283104 -3.20675,-1.203854 a 4.5481874,4.5481874 0 0 1 -1.463146,-2.405063 15.687146,15.687146 0 0 1 -0.381,-3.807354 q 0,-3.175 1.021292,-4.892146 a 5.2599166,5.2599166 0 0 1 2.928937,-2.365375 q 1.912938,-0.656166 4.92125,-0.656166 2.045229,0 4.048125,0.182562 a 27.162125,27.162125 0 0 1 3.439584,0.500063 v 3.362854 a 39.422916,39.422916 0 0 0 -6.574896,-0.481542 17.279937,17.279937 0 0 0 -3.005667,0.201084 3.7994166,3.7994166 0 0 0 -1.685396,0.679979 2.1986875,2.1986875 0 0 0 -0.78052,1.225021 9.1016666,9.1016666 0 0 0 -0.179917,2.06375 10.292292,10.292292 0 0 0 0.179917,2.286 1.5372291,1.5372291 0 0 0 0.701145,1.021291 5.0588333,5.0588333 0 0 0 1.764771,0.460375 l 5.453063,0.722313 a 9.0725624,9.0725624 0 0 1 2.965979,0.822854 3.8020625,3.8020625 0 0 1 1.733021,2.034646 q 0.637645,1.524 0.640291,4.73075 0,3.439583 -0.941916,5.273145 a 4.9424166,4.9424166 0 0 1 -2.725209,2.484438 q -1.785937,0.661458 -4.7625,0.661458 a 62.909978,62.909978 0 0 1 -8.448145,-0.5715 z"
       id="path66"
       style="fill:#000000;stroke-width:0.264583" />
    <path
       class="cls-23"
       d="m -60.704189,40.688248 v -10.2235 l -8.379354,-17.359312 h 4.370916 l 6.053667,12.948708 h 0.280458 l 6.013979,-12.948708 h 4.169834 l -8.379354,17.359312 v 10.2235 z"
       id="path68"
       style="fill:#000000;stroke-width:0.264583" />
    <path
       class="cls-23"
       d="m -29.872294,40.688248 -10.82675,-19.724687 h -0.15875 v 19.724687 h -4.008437 V 13.105436 h 4.328583 l 10.543646,19.124083 h 0.161396 V 13.105436 h 3.96875 v 27.582812 z"
       id="path70"
       style="fill:#000000;stroke-width:0.264583" />
    <path
       class="cls-24"
       d="m -3.932544,40.688248 -2.0849166,-6.977062 h -9.7895834 l -2.042583,6.977062 h -4.164542 l 8.419042,-27.582812 h 5.4927497 l 8.4190416,27.582812 z m -6.908271,-23.373291 h -0.198437 l -3.770313,12.869333 h 7.7390627 z"
       id="path72"
       style="fill:#ff2222;stroke-width:0.264583" />
    <path
       class="cls-24"
       d="m 16.252518,40.849644 q -1.624541,0.15875 -3.026833,0.15875 -4.3682708,0 -6.3949791,-1.143 -2.0267083,-1.143 -2.7066875,-4.008438 -0.6773333,-2.865437 -0.6773333,-8.961437 0,-6.051021 0.6799791,-8.940271 0.6799792,-2.88925 2.7040417,-4.029604 2.0240625,-1.137708 6.4055621,-1.137708 a 26.458333,26.458333 0 0 1 3.026834,0.182562 16.742833,16.742833 0 0 1 2.584979,0.460375 v 3.280834 a 31.985479,31.985479 0 0 0 -4.609042,-0.359834 q -3.291417,0 -4.5719998,0.642938 -1.2805833,0.642937 -1.68275,2.685521 -0.3995208,2.045229 -0.4021667,7.215187 -0.00265,5.169958 0.4021667,7.217833 0.3995208,2.045229 1.68275,2.685521 1.2832288,0.640292 4.5719998,0.642938 a 26.177875,26.177875 0 0 0 4.73075,-0.36248 v 3.368146 a 23.524104,23.524104 0 0 1 -2.717271,0.402167 z"
       id="path74"
       style="fill:#ff2222;stroke-width:0.264583" />
    <path
       class="cls-24"
       d="M 38.636268,40.688248 31.188247,28.459206 H 27.939164 V 40.688248 H 23.819602 V 13.105436 h 4.130145 v 11.787187 h 3.249084 l 7.567083,-11.787187 h 4.450291 l -8.662458,13.311187 8.781521,14.271625 z"
       id="path76"
       style="fill:#ff2222;stroke-width:0.264583" />
    <path
       class="cls-24"
       d="M 51.915705,40.688248 V 16.793727 h -7.14375 v -3.688291 h 18.444104 v 3.688291 h -7.14375 v 23.894521 z"
       id="path78"
       style="fill:#ff2222;stroke-width:0.264583" />
    <path
       class="cls-24"
       d="M 67.229788,40.688248 V 13.105436 h 4.130146 v 27.582812 z"
       id="path80"
       style="fill:#ff2222;stroke-width:0.264583" />
    <path
       class="cls-24"
       d="M 83.186809,40.688248 75.206976,13.105436 h 4.251854 l 6.4135,22.812375 h 0.240771 l 6.373812,-22.812375 h 4.169833 l -7.977187,27.582812 z"
       id="path82"
       style="fill:#ff2222;stroke-width:0.264583" />
  </g>
</svg>
