<svg xmlns="http://www.w3.org/2000/svg" width="777.86" height="240" viewBox="0 0 777.86 240"><path d="M112.648 0C58.58 0 13.407 38.094 2.515 88.92h45.9c9.647-26.113 34.775-44.732 64.233-44.732 37.81 0 68.46 30.652 68.46 68.46s-30.65 68.46-68.46 68.46c-29.588 0-54.768-18.748-64.337-45.017H0v59.695C0 220.214 19.786 240 44.188 240v-37.887c18.982 14.548 42.71 23.184 68.46 23.184 62.211 0 112.649-50.438 112.649-112.649C225.297 50.412 174.859 0 112.648 0zm165.016 156.842h-4.142v36.717h23.026v-3.846h-18.884v-32.871zm26.702 36.717h4.141v-36.717h-4.141v36.717zm19.49-36.717h-4.141v36.717h23.026v-3.846h-18.885v-32.871zm30.843 0h-4.142v36.717h23.026v-3.846h-18.884v-32.871zm48.812 3.497v-3.497h-23.59v36.717h23.59v-3.497h-19.448v-13.718h18.643v-3.497h-18.643v-12.508h19.448z" fill="#0097f0"/><path d="M293.293 92.805h-19.26v42.066h4.745v-16.58h12.142l1.85-.03c4.95 0 8.325-.874 10.123-2.62s2.697-5.023 2.697-9.831c0-5.013-.864-8.433-2.59-10.263-1.725-1.828-4.96-2.742-9.707-2.742zm5.779 20.031c-1.326.966-4.341 1.449-9.045 1.449h-11.249V96.81h12.758l1.819.03c3.349 0 5.47.54 6.364 1.619s1.34 3.651 1.34 7.72c0 3.472-.663 5.691-1.987 6.656zm55.715-20.463c-6.883 0-11.583 1.023-14.099 3.067-2.517 2.045-3.775 5.86-3.775 11.449l-.062 3.974v2.96c0 9.675.972 15.674 2.913 17.996 1.94 2.322 6.949 3.482 15.023 3.482 8.115 0 13.128-1.17 15.039-3.512s2.865-8.517 2.865-18.521c0-9.286-.996-15.09-2.988-17.412-1.993-2.322-6.965-3.483-14.916-3.483zm13.375 21.45c0 8.69-.566 13.775-1.695 15.254s-5.033 2.218-11.71 2.218c-6.658 0-10.551-.74-11.68-2.218s-1.695-6.564-1.695-15.254c0-8.67.565-13.745 1.694-15.224 1.13-1.48 5.023-2.22 11.68-2.22 5.794 0 9.47.627 11.033 1.88 1.562 1.254 2.342 4.202 2.342 8.845l.031 3.976v2.743zm42.847-21.018h-4.745v42.066h26.38v-4.407h-21.635v-37.66zm71.202 14.207l-1.755 2.742-.833 1.356-.831 1.387h-.124l-.833-1.387a31.412 31.412 0 0 0-.861-1.356l-1.727-2.742-9.028-14.207H460.7l15.501 24.5v17.566h4.746v-17.566l15.904-24.5h-5.64l-9 14.207zm42.663-9.8h13.713v37.659h4.749V97.21h13.589v-4.406h-32.05v4.406zm62.728 37.659h27.026v-4.007h-22.28v-15.717h21.356v-4.006h-21.356V96.81h22.28v-4.006h-27.026v42.066zm88.921-11.558c0 3.555-.694 5.774-2.082 6.658-1.385.883-4.872 1.324-10.461 1.324-5.875 0-9.317-1.016-10.325-3.052-1.005-2.033-1.509-8.955-1.509-20.77 0-5.135.75-8.269 2.249-9.398s5.64-1.696 12.419-1.696c3.864 0 6.343.484 7.443 1.449 1.099.966 1.648 3.144 1.648 6.533l.033 1.295h4.713l-.03-1.14c0-4.766-.93-7.982-2.789-9.646-1.858-1.665-5.47-2.497-10.833-2.497-7.91 0-13.055.864-15.438 2.59-2.034 1.478-3.267 3.157-3.7 5.038-.43 1.88-.646 6.466-.646 13.76 0 9.328.955 15.25 2.867 17.764 1.91 2.518 6.39 3.776 13.435 3.776 7.87 0 12.778-.714 14.73-2.142 1.953-1.426 2.928-5.007 2.928-10.739v-1.602h-4.715l.063 2.495zm67.502-11.956h-24.593V92.805h-4.745v42.066h4.745v-19.507h24.593v19.507h4.745V92.805h-4.745v18.552zm26.347-28.173c-4.128 0-7.486 3.36-7.486 7.487s3.358 7.487 7.486 7.487 7.488-3.359 7.488-7.487-3.36-7.487-7.488-7.487zm0 12.381c-2.697 0-4.893-2.195-4.893-4.894s2.196-4.894 4.893-4.894c2.7 0 4.895 2.196 4.895 4.894s-2.196 4.894-4.895 4.894z" fill="#013a66"/></svg>