<?xml version="1.0" encoding="UTF-8" standalone="no"?>
<!-- Created with Inkscape (http://www.inkscape.org/) -->

<svg
   id="svg2996"
   version="1.1"
   inkscape:version="1.2.2 (b0a8486541, 2022-12-01)"
   width="485.38672"
   height="507.67578"
   xml:space="preserve"
   sodipodi:docname="gandi.svg"
   viewBox="0 0 455.05004 475.94605"
   xmlns:inkscape="http://www.inkscape.org/namespaces/inkscape"
   xmlns:sodipodi="http://sodipodi.sourceforge.net/DTD/sodipodi-0.dtd"
   xmlns="http://www.w3.org/2000/svg"
   xmlns:svg="http://www.w3.org/2000/svg"
   xmlns:rdf="http://www.w3.org/1999/02/22-rdf-syntax-ns#"
   xmlns:cc="http://creativecommons.org/ns#"
   xmlns:dc="http://purl.org/dc/elements/1.1/"><metadata
     id="metadata3002"><rdf:RDF><cc:Work
         rdf:about=""><dc:format>image/svg+xml</dc:format><dc:type
           rdf:resource="http://purl.org/dc/dcmitype/StillImage" /></cc:Work></rdf:RDF></metadata><defs
     id="defs3000" /><sodipodi:namedview
     pagecolor="#ffffff"
     bordercolor="#666666"
     borderopacity="1"
     objecttolerance="10"
     gridtolerance="10"
     guidetolerance="10"
     inkscape:pageopacity="0"
     inkscape:pageshadow="2"
     inkscape:window-width="1920"
     inkscape:window-height="1011"
     id="namedview2998"
     showgrid="false"
     inkscape:zoom="0.63429577"
     inkscape:cx="246.73032"
     inkscape:cy="236.48274"
     inkscape:window-x="0"
     inkscape:window-y="752"
     inkscape:window-maximized="1"
     inkscape:current-layer="g3004"
     inkscape:showpageshadow="2"
     inkscape:pagecheckerboard="0"
     inkscape:deskcolor="#d1d1d1" /><g
     id="g3004"
     inkscape:groupmode="layer"
     inkscape:label="gandi"
     transform="matrix(1.25,0,0,-1.25,-117.49877,810.54687)"><path
       d="m 165.82861,350.18359 c -10.76123,0 -18.51562,-1.50488 -20.25097,-2.77832 -0.80957,-0.58007 -1.04053,-1.73437 -1.04053,-3.00781 0,-0.81055 0.11572,-4.0498 1.27148,-6.01758 3.58887,1.6211 11.1084,2.66309 16.31641,2.66309 3.58594,0 6.1333,-1.38965 6.1333,-6.82813 v -9.71777 c -2.31445,1.15332 -5.90137,1.50195 -8.79492,1.50195 -7.40479,0 -15.0415,-2.8916 -15.0415,-18.97656 0,-17.58789 8.09863,-18.2832 16.54443,-18.16601 7.52197,0 12.96045,1.85351 16.08642,3.81835 0,0 0.69532,16.43067 0.69532,36.68165 v 6.71093 c 0,10.41407 -4.39746,14.11621 -11.91944,14.11621 m 2.08057,-51.60839 c -1.03906,-1.15528 -3.93359,-1.85157 -6.24805,-1.85157 -4.51172,0 -7.40429,0.46387 -7.40429,10.41602 0,10.18262 3.93212,11.80078 8.56347,11.80078 1.61865,0 3.93311,-0.23047 5.43799,-1.04297 0,-8.33008 -0.34912,-19.32226 -0.34912,-19.32226 m -46.94922,50.68359 c -1.96826,0.57812 -4.28271,0.9248 -5.78662,0.9248 -11.33887,0 -19.2085,-6.36328 -19.2085,-21.75488 0,-7.4043 1.73731,-13.76953 7.05909,-17.24023 -3.35547,-2.77637 -7.1753,-7.52149 -7.29004,-10.5293 -0.11621,-3.00684 2.54492,-5.0918 6.94287,-6.36523 -4.86084,-3.23829 -8.67774,-7.86719 -8.67774,-13.41993 0,-6.01953 3.00879,-13.19336 18.62891,-13.19336 15.38867,0 22.10059,9.02735 22.10059,18.97852 0,9.13867 -6.94239,12.49609 -14.34815,13.53516 -8.67822,1.15918 -14.58057,1.50488 -14.58057,3.47265 0,1.6211 1.5044,3.58789 3.00831,5.20703 1.50537,-0.3457 3.24023,-0.46191 5.20947,-0.46191 13.42187,0 18.74512,7.98535 18.74512,20.24902 0,5.78614 -1.73682,10.1836 -4.51465,13.07617 1.62011,-0.3496 3.0083,-0.5791 4.28174,-0.5791 1.96777,0 3.23925,1.15918 3.23925,3.70215 0,2.08399 -0.46093,3.58789 -0.92431,4.39844 H 120.95996 M 109.8501,293.02051 c 0.69336,-0.11426 1.38916,-0.23047 2.19824,-0.23047 10.18457,-0.69336 13.19189,-2.19727 13.19189,-7.40625 0,-4.04883 -3.58642,-8.90625 -11.80273,-8.90625 -7.86816,0 -9.72021,2.89062 -9.72021,6.5918 0,3.70312 2.77783,7.52343 6.13281,9.95117 m 4.63037,22.5664 c -7.17627,0 -8.56445,5.20508 -8.56445,13.53614 0,10.18457 3.93408,14.11816 8.91015,14.11816 5.5542,0 8.44629,-3.58789 8.44629,-12.0332 0,-10.06738 -2.66162,-15.6211 -8.79199,-15.6211 m 111.48828,13.30469 c 0,15.96875 -1.50488,21.29199 -15.50391,21.29199 -6.24902,0 -14.58154,-1.73535 -19.09277,-3.81933 v -55.77149 c 9.60547,0 9.37305,0 9.37305,1.96387 v 47.21191 c 2.54297,1.61915 6.13183,2.19922 8.67871,2.19922 6.13281,0 6.82715,-3.4707 6.82715,-12.61132 v -38.76368 c 9.83496,0 9.71777,0 9.71777,1.96387 v 36.33496 m 194.14258,2.31641 c 0,12.3789 -4.97559,18.97558 -14.69824,18.97558 -10.29786,0 -20.4795,-3.58789 -20.4795,-33.67285 0,-23.60449 7.75391,-27.65429 18.51563,-27.65429 8.67871,0 15.96484,2.77929 15.96484,4.3955 0,2.5459 -0.22754,6.59668 -0.80761,8.33203 -3.93457,-2.19628 -8.56446,-3.58789 -14.11817,-3.58789 -6.24902,0 -9.48633,2.08496 -9.83301,16.08496 5.55078,0 16.19825,0.23243 24.1836,1.85157 0.92578,4.16601 1.27246,10.0664 1.27246,15.27539 m -9.7207,-8.21582 c -4.04786,-1.15821 -11.22364,-1.3877 -15.73536,-1.27344 0.69239,16.08496 4.97559,20.24902 9.71973,20.24902 4.97461,0 6.47852,-3.4707 6.59277,-11.80273 0,-2.19922 -0.11425,-5.09082 -0.57714,-7.17285 m -91.93555,-20.13477 c -4.16504,0 -6.47949,-3.12402 -6.47949,-6.71191 0,-4.04883 1.62011,-6.59571 6.47949,-6.59571 4.04785,0 6.48242,3.00684 6.48242,6.59571 0,4.04883 -1.7373,6.71191 -6.48242,6.71191 m 38.85254,47.32617 c -6.2461,0 -14.5791,-1.73535 -19.09473,-3.81933 v -55.77149 c 9.60645,0 9.37695,0 9.37695,1.96387 v 47.21191 c 2.54395,1.61915 6.12891,2.19922 8.67676,2.19922 6.13184,0 6.82617,-3.4707 6.82617,-12.61132 v -38.76368 c 9.83399,0 9.71973,0 9.71973,1.96387 v 36.33496 c 0,15.96875 -1.50684,21.29199 -15.50488,21.29199 m -63.47168,25.11036 c -3.70215,0 -5.32324,-2.7793 -5.32324,-6.94336 -0.11622,-5.43848 1.73828,-7.17383 4.74414,-7.29102 3.46972,0 5.208,2.77734 5.32324,7.52148 0,4.86036 -1.15723,6.7129 -4.74414,6.7129 m -29.5918,-3.93555 v -23.49024 c -1.96875,1.39063 -4.62891,2.31543 -8.21777,2.31543 -9.94922,0 -17.82032,-9.83593 -17.82032,-32.74707 0,-25.10937 7.8711,-28.58007 18.86036,-28.58007 7.17773,0 12.61523,1.1582 16.54785,3.4707 v 83.31445 c -7.6377,0 -9.37012,0 -9.37012,-4.2832 m 0,-72.32031 c -1.85254,-1.27246 -4.2832,-1.73438 -6.8291,-1.73438 -5.4375,0 -8.67481,2.54492 -8.67481,21.17383 0,18.97851 5.08985,23.49023 10.18067,23.49023 2.42578,0 3.81738,-0.3457 5.32324,-1.5039 v -41.42578 m 24.38574,45.1289 v -53.57422 c 9.48828,0 9.60352,0 9.60352,1.96387 v 55.8916 c -7.63672,0 -9.60352,0 -9.60352,-4.28125 m 161.7666,-47.32617 c -4.1621,0 -4.1621,4.16406 -4.1621,9.14063 v 34.36621 h 9.95019 c 1.85449,0 1.85449,0.81054 1.85449,8.10058 h -11.80468 v 20.82813 c -7.63672,0 -9.37012,0 -9.37012,-3.24219 v -17.58594 h -5.9043 c -1.96777,0 -2.08105,-0.92578 -2.08105,-8.10058 h 7.98535 v -33.3252 c 0,-10.41406 0,-18.2832 10.98926,-18.2832 4.51269,0 9.95214,0.92773 9.95214,3.70508 0,2.3125 -0.34668,4.85937 -0.69726,6.13086 -2.42774,-1.04102 -3.4707,-1.73438 -6.71192,-1.73438 z"
       style="fill:#231f20;fill-opacity:1;fill-rule:nonzero;stroke:none"
       id="path3006" /><path
       d="m 275.17578,578.08252 c 9.39649,0 18.23193,3.65967 24.87598,10.30518 6.64258,6.6416 10.30176,15.47412 10.30176,24.87207 0,9.39746 -3.65918,18.23046 -10.30372,24.875 -6.64209,6.64306 -15.47753,10.30273 -24.87402,10.30273 -9.39404,0 -18.229,-3.65967 -24.87353,-10.3042 C 243.6582,631.48975 240,622.65723 240,613.25977 c 0,-9.39551 3.6582,-18.23047 10.30322,-24.87207 6.64307,-6.64551 15.47852,-10.30518 24.87256,-10.30518 m -7.30762,42.48584 c 1.95166,1.95361 4.54834,3.0293 7.30762,3.0293 2.76172,0 5.3584,-1.07569 7.30908,-3.02784 1.95313,-1.9541 3.02881,-4.54785 3.02881,-7.31005 0,-2.7627 -1.07568,-5.35743 -3.02734,-7.30664 -1.95215,-1.95557 -4.54883,-3.03028 -7.31055,-3.03028 -2.75928,0 -5.35596,1.07471 -7.30762,3.02735 -1.95214,1.95214 -3.02783,4.54687 -3.02783,7.30957 0,2.7622 1.07569,5.35595 3.02783,7.30859 m 6.17237,-103.59033 c 6.76806,4.21435 14.02636,8.14258 21.04394,11.93994 8.09326,4.37988 15.76319,8.53174 22.49951,12.97851 11.98731,6.55567 22.53028,16.20215 31.4004,28.73438 4.86425,6.87012 3.23535,16.38379 -3.63575,21.24365 -6.87109,4.86426 -16.38379,3.23584 -21.24609,-3.63281 -5.9707,-8.44092 -12.5791,-14.69824 -20.09961,-19.01856 -0.69434,-0.39892 -1.39844,-0.78027 -2.1084,-1.14794 -0.65332,-0.33887 -1.31738,-0.66309 -1.98535,-0.97217 -7.02246,-3.25489 -14.84326,-4.96338 -23.88477,-5.23438 -9.04199,0.271 -16.8667,1.98096 -23.8916,5.23584 -9.25146,4.28711 -17.16552,11.19971 -24.19873,21.13721 -4.8623,6.86865 -14.375,8.49707 -21.24365,3.63281 -6.87207,-4.85986 -8.50098,-14.37353 -3.6377,-21.24365 10.04786,-14.19922 22.24952,-24.69141 36.26612,-31.18506 2.75342,-1.27637 5.56201,-2.39844 8.44092,-3.36767 -11.90528,-8.59668 -24.77832,-20.64698 -30.94434,-37.16749 -6.40137,-17.14306 -6.32031,-35.70361 0.22266,-52.26513 6.27832,-15.88965 17.89892,-28.81153 32.72314,-36.39063 16.5166,-8.44433 37.54102,-8.46191 56.23779,-0.042 19.6211,8.83203 32.4209,25.00293 34.23828,43.26367 1.91016,19.22315 -7.30566,36.33789 -23.48144,43.60352 -16.75684,7.52441 -35.65772,2.15283 -48.15186,-13.68018 -5.21582,-6.60742 -4.08545,-16.19287 2.52149,-21.40771 6.6084,-5.21582 16.19287,-4.08399 21.40722,2.52148 3.71241,4.70508 7.9917,6.44043 11.73877,4.75781 3.19336,-1.43554 6.34961,-5.54882 5.63184,-12.77929 -0.71484,-7.16114 -7.00391,-14.24707 -16.41504,-18.48535 -10.18408,-4.58106 -21.62353,-4.81543 -29.85449,-0.60938 -8.21436,4.20117 -14.69434,11.46387 -18.24463,20.4502 -2.6665,6.74511 -4.8335,17.50097 -0.0151,30.40185 3.61377,9.67871 12.72217,18.80908 28.66651,28.72852 z"
       style="fill:#231f20;fill-opacity:1;fill-rule:nonzero;stroke:none"
       id="path3008" /></g></svg>
