<?xml version="1.0" encoding="UTF-8" standalone="no"?>
<!-- Generator: Adobe Illustrator 18.0.0, SVG Export Plug-In . SVG Version: 6.00 Build 0)  -->

<svg
   version="1.1"
   id="Capa_1"
   x="0px"
   y="0px"
   viewBox="0 0 270.60708 328.76088"
   xml:space="preserve"
   sodipodi:docname="logo-salt-2023-black.svg"
   width="270.60709"
   height="328.76089"
   inkscape:version="1.2.2 (b0a8486541, 2022-12-01)"
   xmlns:inkscape="http://www.inkscape.org/namespaces/inkscape"
   xmlns:sodipodi="http://sodipodi.sourceforge.net/DTD/sodipodi-0.dtd"
   xmlns="http://www.w3.org/2000/svg"
   xmlns:svg="http://www.w3.org/2000/svg"
   xmlns:rdf="http://www.w3.org/1999/02/22-rdf-syntax-ns#"
   xmlns:cc="http://creativecommons.org/ns#"
   xmlns:dc="http://purl.org/dc/elements/1.1/"><metadata
     id="metadata51"><rdf:RDF><cc:Work
         rdf:about=""><dc:format>image/svg+xml</dc:format><dc:type
           rdf:resource="http://purl.org/dc/dcmitype/StillImage" /></cc:Work></rdf:RDF></metadata><defs
     id="defs49" /><sodipodi:namedview
     pagecolor="#ffffff"
     bordercolor="#666666"
     borderopacity="1"
     objecttolerance="10"
     gridtolerance="10"
     guidetolerance="10"
     inkscape:pageopacity="0"
     inkscape:pageshadow="2"
     inkscape:window-width="1920"
     inkscape:window-height="1011"
     id="namedview47"
     showgrid="true"
     showguides="true"
     inkscape:guide-bbox="true"
     fit-margin-top="0"
     fit-margin-left="29"
     fit-margin-right="29"
     fit-margin-bottom="0"
     inkscape:zoom="2.3914916"
     inkscape:cx="47.878069"
     inkscape:cy="162.65999"
     inkscape:window-x="0"
     inkscape:window-y="32"
     inkscape:window-maximized="1"
     inkscape:current-layer="Capa_1"
     inkscape:snap-bbox="true"
     inkscape:snap-bbox-midpoints="true"
     inkscape:snap-midpoints="true"
     inkscape:snap-grids="false"
     inkscape:showpageshadow="2"
     inkscape:pagecheckerboard="0"
     inkscape:deskcolor="#d1d1d1"><inkscape:grid
       type="xygrid"
       id="grid870"
       originx="-15.171369"
       originy="49.153284" /><sodipodi:guide
       position="134.82864,609.15327"
       orientation="0,1"
       id="guide4593"
       inkscape:locked="false" /></sodipodi:namedview><path
     id="path418"
     style="color:#000000;font-style:normal;font-variant:normal;font-weight:normal;font-stretch:normal;font-size:medium;line-height:normal;font-family:sans-serif;font-variant-ligatures:normal;font-variant-position:normal;font-variant-caps:normal;font-variant-numeric:normal;font-variant-alternates:normal;font-feature-settings:normal;text-indent:0;text-align:start;text-decoration:none;text-decoration-line:none;text-decoration-style:solid;text-decoration-color:#000000;letter-spacing:normal;word-spacing:normal;text-transform:none;writing-mode:lr-tb;direction:ltr;text-orientation:mixed;dominant-baseline:auto;baseline-shift:baseline;text-anchor:start;white-space:normal;shape-padding:0;clip-rule:nonzero;display:inline;overflow:visible;visibility:visible;opacity:1;isolation:auto;mix-blend-mode:normal;color-interpolation:sRGB;color-interpolation-filters:linearRGB;solid-color:#000000;solid-opacity:1;vector-effect:none;fill:#ffffff;fill-opacity:1;fill-rule:nonzero;stroke:none;stroke-width:20;stroke-linecap:round;stroke-linejoin:round;stroke-miterlimit:4;stroke-dasharray:none;stroke-dashoffset:0;stroke-opacity:1;marker:none;paint-order:stroke fill markers;color-rendering:auto;image-rendering:auto;shape-rendering:auto;text-rendering:auto;enable-background:accumulate"
     d="M 136.64844 11.5 C 88.91171 11.5 60.190642 25.563197 47.816406 41.927734 C 41.629288 50.110004 39.483023 58.828267 40.910156 66.84375 C 42.323741 74.783131 47.259581 82.10051 55.623047 87.53125 A 1.50015 1.50015 0 0 1 56.550781 88.970703 A 1.5002301 1.5002301 0 0 1 56.544922 89.072266 A 1.5002301 1.5002301 0 0 1 56.537109 89.162109 L 56.537109 89.164062 L 41.322266 259.74023 A 1.50015 1.50015 0 0 1 41.304688 259.87695 C 39.262046 271.03376 44.12444 280.87906 50.535156 288.74414 C 56.945874 296.60922 64.811122 302.32737 68.457031 305.08398 C 68.404411 305.04418 68.778575 305.26325 69.322266 305.46289 C 69.865955 305.66253 70.613955 305.89832 71.519531 306.1543 C 73.330684 306.66625 75.776938 307.2624 78.644531 307.90234 C 84.379719 309.18222 91.806744 310.63818 99.388672 312.00586 C 106.9706 313.37354 114.71144 314.65317 121.07812 315.58203 C 127.44484 316.51089 132.56088 317.07809 134.40625 317.05469 C 136.33948 317.03009 141.06855 316.5206 146.93164 315.72656 C 152.79473 314.93252 159.86919 313.8588 166.81641 312.7168 C 173.76361 311.57479 180.5852 310.36312 185.9375 309.29883 C 188.61365 308.76668 190.92459 308.27235 192.68555 307.84375 C 194.44651 307.41515 195.75331 306.98256 195.99414 306.86133 C 200.51301 304.5867 209.57579 299.80073 216.98438 292.69336 C 224.39292 285.58599 230.07035 276.35208 228.3457 264.83008 A 1.50015 1.50015 0 0 1 228.33398 264.73633 L 213.33398 89.736328 A 1.50015 1.50015 0 0 1 213.50977 88.849609 A 1.50015 1.50015 0 0 1 214.23633 87.695312 C 222.64388 82.245887 227.81808 74.832825 229.51367 66.796875 C 231.20926 58.760925 229.45087 50.053324 223.68945 41.888672 C 212.16663 25.559317 184.38516 11.5 136.64844 11.5 z M 136.64844 20 C 182.72128 20 207.58577 33.810481 216.74414 46.789062 C 221.32333 53.278354 222.38766 59.401254 221.19727 65.042969 C 220.00686 70.684683 216.39588 76.1663 209.61328 80.5625 A 10.001 10.001 0 0 0 204.97266 87.767578 A 10.001 10.001 0 0 0 204.95117 87.894531 A 10.001 10.001 0 0 0 204.94922 87.916016 A 10.001 10.001 0 0 0 204.86523 90.460938 L 219.86523 265.46094 A 10.001 10.001 0 0 0 219.86914 265.51367 C 220.66233 274.22898 216.70286 280.6336 210.54492 286.54883 C 204.38699 292.46405 196.59758 296.69713 191.8457 299.38281 C 193.38783 298.51121 192.09441 299.24142 190.69922 299.62891 C 189.30403 300.01638 187.28434 300.51125 184.90234 301.04297 C 180.13836 302.10641 173.88506 303.33361 167.36914 304.48438 C 154.33729 306.78588 139.44129 308.73093 134.77344 308.76172 C 126.81404 308.81422 75.633517 298.33498 74.738281 298.11133 C 74.764891 298.11833 71.71827 296.85222 68.607422 294.58398 C 65.496574 292.31575 61.931295 289.10694 58.808594 285.4043 C 52.563191 277.99902 48.534279 269.13206 49.722656 261.06445 A 10.001 10.001 0 0 0 49.789062 260.49609 L 64.875 91.365234 A 10.001 10.001 0 0 0 64.355469 85.125 A 10.001 10.001 0 0 0 64.197266 84.746094 A 10.001 10.001 0 0 0 64.154297 84.65625 A 10.001 10.001 0 0 0 59.238281 79.722656 C 53.211371 75.511245 50.198079 70.524816 49.277344 65.353516 C 48.297147 59.84825 49.599942 53.661424 54.595703 47.054688 C 64.587225 33.841213 90.575588 20 136.64844 20 z " /><path
     id="path414"
     style="color:#000000;font-style:normal;font-variant:normal;font-weight:normal;font-stretch:normal;font-size:medium;line-height:normal;font-family:sans-serif;font-variant-ligatures:normal;font-variant-position:normal;font-variant-caps:normal;font-variant-numeric:normal;font-variant-alternates:normal;font-feature-settings:normal;text-indent:0;text-align:start;text-decoration:none;text-decoration-line:none;text-decoration-style:solid;text-decoration-color:#000000;letter-spacing:normal;word-spacing:normal;text-transform:none;writing-mode:lr-tb;direction:ltr;text-orientation:mixed;dominant-baseline:auto;baseline-shift:baseline;text-anchor:start;white-space:normal;shape-padding:0;clip-rule:nonzero;display:inline;overflow:visible;visibility:visible;opacity:1;isolation:auto;mix-blend-mode:normal;color-interpolation:sRGB;color-interpolation-filters:linearRGB;solid-color:#000000;solid-opacity:1;vector-effect:none;fill:#ffffff;fill-opacity:1;fill-rule:nonzero;stroke:none;stroke-width:20;stroke-linecap:round;stroke-linejoin:round;stroke-miterlimit:4;stroke-dasharray:none;stroke-dashoffset:0;stroke-opacity:1;marker:none;paint-order:stroke fill markers;color-rendering:auto;image-rendering:auto;shape-rendering:auto;text-rendering:auto;enable-background:accumulate"
     d="M 136.64844,0 C 86.660578,0 54.240483,14.364448 38.642578,34.992188 c -7.798952,10.313868 -11.0865,22.45553 -9.054687,33.867187 1.693807,9.513254 7.034121,18.18184 15.003906,24.800781 L 29.884766,258.54297 c -2.182262,15.86117 5.20405,29.75943 13.634765,39.75586 4.250211,5.03953 8.875594,9.21589 13.304688,12.44531 4.429093,3.22942 8.270586,5.5734 13.066406,6.77148 5.644214,1.41008 46.471355,11.36648 65.015625,11.24415 8.58399,-0.0566 22.4325,-2.19432 35.94141,-4.58008 6.75445,-1.19288 13.2194,-2.45805 18.41211,-3.61719 2.59634,-0.57957 4.86577,-1.12939 6.79101,-1.66406 1.92524,-0.53468 2.98507,-0.60484 5.63672,-2.10352 4.12428,-2.33098 13.99473,-7.44772 22.71289,-15.82226 8.71816,-8.37456 16.84932,-21.20083 15.38672,-37.27149 l 0.006,0.0527 -14.5625,-169.888676 c 8.02584,-6.588148 13.53024,-15.191309 15.53515,-24.693359 2.37908,-11.275207 -0.3188,-23.482747 -7.67968,-33.914063 C 218.36417,14.395183 186.63629,0 136.64844,0 Z m 0,8.5 c 48.32397,0 77.13488,14.146292 89.49218,31.658203 6.17869,8.755956 8.18249,18.376839 6.3086,27.257813 -1.83904,8.7158 -7.39675,16.667579 -16.0918,22.46289 l 14.96289,174.574214 0.002,0.0254 c 1.8576,12.67139 -4.47694,22.91249 -12.25977,30.3789 -7.80222,7.48502 -17.13411,12.37586 -21.71875,14.6836 -0.8971,0.45156 -2.11987,0.77154 -3.94922,1.21679 -1.82935,0.44525 -4.16923,0.94712 -6.87109,1.48438 -5.40375,1.07452 -12.24894,2.28755 -19.22071,3.43359 -6.97175,1.14604 -14.06718,2.22419 -19.96875,3.02344 -5.90155,0.79925 -10.53075,1.32547 -12.89062,1.35547 -2.44773,0.0311 -7.38646,-0.56838 -13.79883,-1.50391 -6.41237,-0.93552 -14.17587,-2.21883 -21.787108,-3.5918 -7.611231,-1.37295 -15.067034,-2.83453 -20.867188,-4.1289 -2.900076,-0.64719 -5.383528,-1.25099 -7.287109,-1.78906 -0.95179,-0.26904 -1.757882,-0.52201 -2.416016,-0.76368 -0.658132,-0.24166 -1.134643,-0.41773 -1.638671,-0.79882 -3.576583,-2.70422 -11.720262,-8.59631 -18.439454,-16.83985 -6.694097,-8.21274 -12.060877,-18.92635 -9.875,-31.16406 L 53.476562,89.703125 C 44.832341,83.918975 39.496405,76.015011 37.957031,67.369141 36.372156,58.4677 38.814279,48.857479 45.421875,40.119141 58.637068,22.642462 88.324459,8.5 136.64844,8.5 Z" /><path
     style="color:#000000;font-style:normal;font-variant:normal;font-weight:normal;font-stretch:normal;font-size:medium;line-height:normal;font-family:sans-serif;font-variant-ligatures:normal;font-variant-position:normal;font-variant-caps:normal;font-variant-numeric:normal;font-variant-alternates:normal;font-feature-settings:normal;text-indent:0;text-align:start;text-decoration:none;text-decoration-line:none;text-decoration-style:solid;text-decoration-color:#000000;letter-spacing:normal;word-spacing:normal;text-transform:none;writing-mode:lr-tb;direction:ltr;text-orientation:mixed;dominant-baseline:auto;baseline-shift:baseline;text-anchor:start;white-space:normal;shape-padding:0;clip-rule:nonzero;display:inline;overflow:visible;visibility:visible;opacity:1;isolation:auto;mix-blend-mode:normal;color-interpolation:sRGB;color-interpolation-filters:linearRGB;solid-color:#000000;solid-opacity:1;vector-effect:none;fill:#ffffff;fill-opacity:1;fill-rule:nonzero;stroke:none;stroke-width:12.69188118;stroke-linecap:round;stroke-linejoin:round;stroke-miterlimit:4;stroke-dasharray:none;stroke-dashoffset:0;stroke-opacity:1;marker:none;paint-order:stroke fill markers;color-rendering:auto;image-rendering:auto;shape-rendering:auto;text-rendering:auto;enable-background:accumulate"
     d="m 92.240161,120.06641 a 6.3465752,6.3465752 0 0 0 -6.128906,5.90625 L 73.521411,277.13672 a 6.3465752,6.3465752 0 1 0 12.648438,1.05273 L 98.759693,127.02734 a 6.3465752,6.3465752 0 0 0 -6.519532,-6.96093 z"
     id="path4567"
     inkscape:connector-curvature="0" /><path
     style="color:#000000;font-style:normal;font-variant:normal;font-weight:normal;font-stretch:normal;font-size:medium;line-height:normal;font-family:sans-serif;font-variant-ligatures:normal;font-variant-position:normal;font-variant-caps:normal;font-variant-numeric:normal;font-variant-alternates:normal;font-feature-settings:normal;text-indent:0;text-align:start;text-decoration:none;text-decoration-line:none;text-decoration-style:solid;text-decoration-color:#000000;letter-spacing:normal;word-spacing:normal;text-transform:none;writing-mode:lr-tb;direction:ltr;text-orientation:mixed;dominant-baseline:auto;baseline-shift:baseline;text-anchor:start;white-space:normal;shape-padding:0;clip-rule:nonzero;display:inline;overflow:visible;visibility:visible;opacity:1;isolation:auto;mix-blend-mode:normal;color-interpolation:sRGB;color-interpolation-filters:linearRGB;solid-color:#000000;solid-opacity:1;vector-effect:none;fill:#ffffff;fill-opacity:1;fill-rule:nonzero;stroke:none;stroke-width:13.14656544;stroke-linecap:round;stroke-linejoin:round;stroke-miterlimit:4;stroke-dasharray:none;stroke-dashoffset:0;stroke-opacity:1;marker:none;paint-order:stroke fill markers;color-rendering:auto;image-rendering:auto;shape-rendering:auto;text-rendering:auto;enable-background:accumulate"
     d="m 134.7304,125.74219 a 6.57394,6.57394 0 0 0 -6.47461,6.66601 v 157.0586 a 6.57394,6.57394 0 1 0 13.14648,0 V 132.4082 a 6.57394,6.57394 0 0 0 -6.67187,-6.66601 z"
     id="path4569"
     inkscape:connector-curvature="0" /><path
     style="color:#000000;font-style:normal;font-variant:normal;font-weight:normal;font-stretch:normal;font-size:medium;line-height:normal;font-family:sans-serif;font-variant-ligatures:normal;font-variant-position:normal;font-variant-caps:normal;font-variant-numeric:normal;font-variant-alternates:normal;font-feature-settings:normal;text-indent:0;text-align:start;text-decoration:none;text-decoration-line:none;text-decoration-style:solid;text-decoration-color:#000000;letter-spacing:normal;word-spacing:normal;text-transform:none;writing-mode:lr-tb;direction:ltr;text-orientation:mixed;dominant-baseline:auto;baseline-shift:baseline;text-anchor:start;white-space:normal;shape-padding:0;clip-rule:nonzero;display:inline;overflow:visible;visibility:visible;opacity:1;isolation:auto;mix-blend-mode:normal;color-interpolation:sRGB;color-interpolation-filters:linearRGB;solid-color:#000000;solid-opacity:1;vector-effect:none;fill:#ffffff;fill-opacity:1;fill-rule:nonzero;stroke:none;stroke-width:12.69913578;stroke-linecap:round;stroke-linejoin:round;stroke-miterlimit:4;stroke-dasharray:none;stroke-dashoffset:0;stroke-opacity:1;marker:none;paint-order:stroke fill markers;color-rendering:auto;image-rendering:auto;shape-rendering:auto;text-rendering:auto;enable-background:accumulate"
     d="m 179.55462,120.0625 a 6.3502028,6.3502028 0 0 0 -6.47071,6.83789 l 9.56446,151.33984 a 6.3502028,6.3502028 0 1 0 12.67383,-0.80078 l -9.56446,-151.33984 a 6.3502028,6.3502028 0 0 0 -6.20312,-6.03711 z"
     id="path4571"
     inkscape:connector-curvature="0" /><path
     style="color:#000000;font-style:normal;font-variant:normal;font-weight:normal;font-stretch:normal;font-size:medium;line-height:normal;font-family:sans-serif;font-variant-ligatures:normal;font-variant-position:normal;font-variant-caps:normal;font-variant-numeric:normal;font-variant-alternates:normal;font-feature-settings:normal;text-indent:0;text-align:start;text-decoration:none;text-decoration-line:none;text-decoration-style:solid;text-decoration-color:#000000;letter-spacing:normal;word-spacing:normal;text-transform:none;writing-mode:lr-tb;direction:ltr;text-orientation:mixed;dominant-baseline:auto;baseline-shift:baseline;text-anchor:start;white-space:normal;shape-padding:0;clip-rule:nonzero;display:inline;overflow:visible;visibility:visible;opacity:1;isolation:auto;mix-blend-mode:normal;color-interpolation:sRGB;color-interpolation-filters:linearRGB;solid-color:#000000;solid-opacity:1;vector-effect:none;fill:#ffffff;fill-opacity:1;fill-rule:nonzero;stroke:none;stroke-width:20;stroke-linecap:round;stroke-linejoin:round;stroke-miterlimit:4;stroke-dasharray:none;stroke-dashoffset:0;stroke-opacity:1;marker:none;paint-order:stroke fill markers;color-rendering:auto;image-rendering:auto;shape-rendering:auto;text-rendering:auto;enable-background:accumulate"
     d="m 114.82805,31.607422 a 10.001,10.001 0 1 0 0,20 10.001,10.001 0 1 0 0,-20 z"
     id="path4577"
     inkscape:connector-curvature="0" /><path
     style="color:#000000;font-style:normal;font-variant:normal;font-weight:normal;font-stretch:normal;font-size:medium;line-height:normal;font-family:sans-serif;font-variant-ligatures:normal;font-variant-position:normal;font-variant-caps:normal;font-variant-numeric:normal;font-variant-alternates:normal;font-feature-settings:normal;text-indent:0;text-align:start;text-decoration:none;text-decoration-line:none;text-decoration-style:solid;text-decoration-color:#000000;letter-spacing:normal;word-spacing:normal;text-transform:none;writing-mode:lr-tb;direction:ltr;text-orientation:mixed;dominant-baseline:auto;baseline-shift:baseline;text-anchor:start;white-space:normal;shape-padding:0;clip-rule:nonzero;display:inline;overflow:visible;visibility:visible;opacity:1;isolation:auto;mix-blend-mode:normal;color-interpolation:sRGB;color-interpolation-filters:linearRGB;solid-color:#000000;solid-opacity:1;vector-effect:none;fill:#ffffff;fill-opacity:1;fill-rule:nonzero;stroke:none;stroke-width:20;stroke-linecap:round;stroke-linejoin:round;stroke-miterlimit:4;stroke-dasharray:none;stroke-dashoffset:0;stroke-opacity:1;marker:none;paint-order:stroke fill markers;color-rendering:auto;image-rendering:auto;shape-rendering:auto;text-rendering:auto;enable-background:accumulate"
     d="m 154.82805,31.607422 a 10.001,10.001 0 1 0 0,20 10.001,10.001 0 1 0 0,-20 z"
     id="path4579"
     inkscape:connector-curvature="0" /><path
     style="color:#000000;font-style:normal;font-variant:normal;font-weight:normal;font-stretch:normal;font-size:medium;line-height:normal;font-family:sans-serif;font-variant-ligatures:normal;font-variant-position:normal;font-variant-caps:normal;font-variant-numeric:normal;font-variant-alternates:normal;font-feature-settings:normal;text-indent:0;text-align:start;text-decoration:none;text-decoration-line:none;text-decoration-style:solid;text-decoration-color:#000000;letter-spacing:normal;word-spacing:normal;text-transform:none;writing-mode:lr-tb;direction:ltr;text-orientation:mixed;dominant-baseline:auto;baseline-shift:baseline;text-anchor:start;white-space:normal;shape-padding:0;clip-rule:nonzero;display:inline;overflow:visible;visibility:visible;opacity:1;isolation:auto;mix-blend-mode:normal;color-interpolation:sRGB;color-interpolation-filters:linearRGB;solid-color:#000000;solid-opacity:1;vector-effect:none;fill:#ffffff;fill-opacity:1;fill-rule:nonzero;stroke:none;stroke-width:12;stroke-linecap:round;stroke-linejoin:round;stroke-miterlimit:4;stroke-dasharray:none;stroke-dashoffset:0;stroke-opacity:1;marker:none;paint-order:stroke fill markers;color-rendering:auto;image-rendering:auto;shape-rendering:auto;text-rendering:auto;enable-background:accumulate"
     d="m 79.441333,86.037109 a 6.0006,6.0006 0 0 0 -2.125,11.699219 C 116.94088,111.2946 155.15116,111.16769 191.23821,98.291016 a 6.0006,6.0006 0 1 0 -4.0332,-11.300782 C 153.59236,98.983988 118.59387,99.177441 81.201099,86.382812 a 6.0006,6.0006 0 0 0 -1.759766,-0.345703 z"
     id="path4575-3"
     inkscape:connector-curvature="0" /></svg>
