<?xml version="1.0" encoding="UTF-8" standalone="no"?>
<!-- Generator: Adobe Illustrator 18.0.0, SVG Export Plug-In . SVG Version: 6.00 Build 0)  -->

<svg
   version="1.1"
   id="Capa_1"
   x="0px"
   y="0px"
   viewBox="0 0 270.60708 328.76088"
   xml:space="preserve"
   sodipodi:docname="logo-salt-2023-black-simple.svg"
   width="270.60709"
   height="328.76089"
   inkscape:version="1.2.2 (b0a8486541, 2022-12-01)"
   xmlns:inkscape="http://www.inkscape.org/namespaces/inkscape"
   xmlns:sodipodi="http://sodipodi.sourceforge.net/DTD/sodipodi-0.dtd"
   xmlns="http://www.w3.org/2000/svg"
   xmlns:svg="http://www.w3.org/2000/svg"
   xmlns:rdf="http://www.w3.org/1999/02/22-rdf-syntax-ns#"
   xmlns:cc="http://creativecommons.org/ns#"
   xmlns:dc="http://purl.org/dc/elements/1.1/"><metadata
     id="metadata51"><rdf:RDF><cc:Work
         rdf:about=""><dc:format>image/svg+xml</dc:format><dc:type
           rdf:resource="http://purl.org/dc/dcmitype/StillImage" /></cc:Work></rdf:RDF></metadata><defs
     id="defs49" /><sodipodi:namedview
     pagecolor="#ffffff"
     bordercolor="#666666"
     borderopacity="1"
     objecttolerance="10"
     gridtolerance="10"
     guidetolerance="10"
     inkscape:pageopacity="0"
     inkscape:pageshadow="2"
     inkscape:window-width="1920"
     inkscape:window-height="1011"
     id="namedview47"
     showgrid="true"
     showguides="true"
     inkscape:guide-bbox="true"
     fit-margin-top="0"
     fit-margin-left="29"
     fit-margin-right="29"
     fit-margin-bottom="0"
     inkscape:zoom="1.8658698"
     inkscape:cx="136.39751"
     inkscape:cy="98.077583"
     inkscape:window-x="0"
     inkscape:window-y="32"
     inkscape:window-maximized="1"
     inkscape:current-layer="Capa_1"
     inkscape:snap-bbox="true"
     inkscape:snap-bbox-midpoints="true"
     inkscape:snap-midpoints="true"
     inkscape:snap-grids="false"
     inkscape:showpageshadow="2"
     inkscape:pagecheckerboard="0"
     inkscape:deskcolor="#d1d1d1"><inkscape:grid
       type="xygrid"
       id="grid870"
       originx="-15.171369"
       originy="49.153284" /><sodipodi:guide
       position="134.82864,609.15327"
       orientation="0,1"
       id="guide4593"
       inkscape:locked="false" /></sodipodi:namedview><path
     id="path418"
     style="baseline-shift:baseline;display:inline;overflow:visible;opacity:1;vector-effect:none;stroke-width:20;stroke-linecap:round;stroke-linejoin:round;marker:none;paint-order:stroke fill markers;enable-background:accumulate"
     d="M 134.42773,9.4257812 C 124.33882,9.539279 114.11802,10.248523 104.17188,11.871094 a 2.0850569,2.0850569 0 0 0 -0.006,0.002 c -13.984648,2.31787 -27.972282,6.334675 -40.419926,13.640625 a 2.0850569,2.0850569 0 0 0 -0.01172,0.0078 c -7.4666,4.44636 -14.452552,10.191576 -19.359375,17.679688 -0.378226,0.575887 -0.883718,1.397223 -1.287109,2.101562 -3.601087,6.240618 -5.493528,13.680383 -4.365235,21.023438 0.972779,6.983717 4.608529,13.305664 9.583985,18.060547 0.001,9.99e-4 0.0029,9.53e-4 0.0039,0.002 1.770459,1.713573 3.723486,3.195811 5.746094,4.548828 0.14417,0.221874 0.313219,0.497511 0.365234,0.580078 a 2.0850569,2.0850569 0 0 0 -0.01563,0.07617 C 49.343444,146.3233 44.294316,203.05448 39.214844,259.78125 l 0.02734,-0.19922 c -1.493403,7.95879 0.514539,16.12322 4.455078,22.90039 2.71e-4,4.8e-4 -2.72e-4,0.001 0,0.002 4.647841,8.15452 11.391147,14.71289 18.466796,20.38867 a 2.0850569,2.0850569 0 0 0 0.0039,0.002 c 1.488142,1.1875 3.157064,2.49436 4.80664,3.67578 a 2.0850569,2.0850569 0 0 0 0.0918,0.0606 c 1.769604,1.1318 3.582704,1.43505 4.933594,1.83789 a 2.0850569,2.0850569 0 0 0 0.08984,0.0254 c 8.977292,2.24483 18.04183,3.95995 27.074218,5.60351 a 2.0850569,2.0850569 0 0 0 0.0078,0.002 c 8.578135,1.52243 17.187675,2.9817 25.855465,4.16015 a 2.0850569,2.0850569 0 0 0 0.0137,0.002 c 1.6172,0.20995 3.4477,0.42286 5.1582,0.59765 2.62592,0.32439 5.29627,0.36541 7.95898,0.0488 0.001,-1.5e-4 0.003,1.6e-4 0.004,0 10.11023,-1.11698 20.14502,-2.66836 30.13477,-4.30469 a 2.0850569,2.0850569 0 0 0 0.01,0 c 6.06668,-1.02463 12.2588,-2.10451 18.36524,-3.31445 a 2.0850569,2.0850569 0 0 0 0.01,-0.002 c 3.20527,-0.64933 6.58235,-1.24843 9.91016,-2.43164 a 2.0850569,2.0850569 0 0 0 0.19336,-0.0801 c 3.27987,-1.55429 6.41947,-3.35498 9.39843,-5.20313 l 0.004,-0.002 c 1.1489,-0.70965 2.16426,-1.38841 3.20508,-2.10156 a 2.0850569,2.0850569 0 0 0 0.002,-0.002 c 6.98599,-4.79001 13.61446,-10.75179 17.79688,-18.54297 a 2.0850569,2.0850569 0 0 0 0.006,-0.01 c 2.91257,-5.49771 4.16024,-11.88521 3.26367,-18.11133 l 0.01,0.0957 c -0.70013,-7.2216 -1.24279,-14.42237 -1.89258,-21.69922 l 0.002,0.008 -13.15039,-153.455078 c -0.01,-0.212458 0.28024,-0.635831 0.90429,-0.9375 a 2.0850569,2.0850569 0 0 0 0.28516,-0.167969 c 5.9579,-4.16216 11.0215,-9.925486 13.63867,-16.933594 3.07787,-8.037937 2.40622,-17.142365 -1.24804,-24.791015 -1.20572,-2.578127 -2.69131,-5.004718 -4.38282,-7.261719 l -0.006,-0.0059 c -0.25964,-0.34965 -0.7182,-0.942201 -1.08007,-1.384766 -6.66684,-8.154772 -15.68747,-13.843328 -25.0293,-17.966797 a 2.0850569,2.0850569 0 0 0 -0.002,0 c -5.54205,-2.440869 -11.40548,-4.365365 -17.30274,-5.859375 -1.65304,-0.419329 -3.35124,-0.817887 -4.93359,-1.15625 l -0.006,-0.002 c -6.75541,-1.464745 -13.59455,-2.423141 -20.44336,-3.039063 a 2.0850569,2.0850569 0 0 0 -0.0137,-0.002 c -1.47121,-0.122752 -3.16721,-0.2556091 -4.73828,-0.3574215 a 2.0850569,2.0850569 0 0 0 -0.002,0 C 148.77186,9.7198886 146.29785,9.60672 143.93555,9.5273438 a 2.0850569,2.0850569 0 0 0 -0.01,0 c -3.06767,-0.088697 -6.34391,-0.1255986 -9.49023,-0.1015626 a 2.0850569,2.0850569 0 0 0 -0.008,0 z m 2.22657,12.6582028 h 0.006 c 15.78537,0.03399 31.63514,1.560564 46.64062,6.144532 9.74612,3.048236 19.19156,7.37867 26.66406,14.099609 4.67596,4.254006 8.4327,9.700282 9.39649,15.748047 0.90162,5.743377 -1.27262,11.891208 -5.32031,16.134766 a 2.0850569,2.0850569 0 0 0 -0.0352,0.03711 c -1.84873,2.034145 -4.26862,3.7001 -6.78125,5.501953 a 2.0850569,2.0850569 0 0 0 -0.10742,0.08203 c -3.31514,2.71815 -4.67907,7.002553 -4.3086,11.011719 5.01376,58.58194 10.04478,117.16357 15.04688,175.74609 0.34079,5.08886 -1.60135,10.28448 -4.92188,14.26172 a 2.0850569,2.0850569 0 0 0 -0.0332,0.0391 c -5.18888,6.53414 -12.47575,11.23643 -19.97851,15.49415 a 2.0850569,2.0850569 0 0 0 -0.0371,0.0215 c -2.29192,1.36513 -5.30131,1.82135 -8.52735,2.61523 -14.7857,3.19059 -29.71664,5.70749 -44.73828,7.32227 a 2.0850569,2.0850569 0 0 0 -0.004,0 c -2.81273,0.30648 -5.54176,0.46087 -8.1289,0.0723 a 2.0850569,2.0850569 0 0 0 -0.0449,-0.006 c -8.77014,-1.12924 -17.50741,-2.81643 -26.30469,-4.41797 l -0.0137,-0.002 c -9.764688,-1.84442 -19.514478,-3.77557 -29.24805,-5.77929 -1.465021,-0.38138 -2.984469,-1.37459 -4.740234,-2.4375 -4.24229,-2.80573 -7.982472,-6.42947 -11.298828,-10.41602 -5.91e-4,-7.1e-4 -0.0014,-0.001 -0.002,-0.002 -4.074223,-4.99502 -7.25682,-10.80955 -8.08789,-17.01172 a 2.0850569,2.0850569 0 0 0 0,-0.004 c -0.302579,-2.22404 -0.01204,-4.64468 0.261718,-7.25 a 2.0850569,2.0850569 0 0 0 0.002,-0.0332 C 56.995356,203.22401 61.965725,147.38906 66.960938,91.558594 L 66.908203,91.875 C 68.263876,86.40669 65.527902,80.497426 60.462891,78.011719 l 0.216797,0.121093 C 55.952157,75.068841 52.165701,70.267425 51.318359,64.847656 A 2.0850569,2.0850569 0 0 0 51.3125,64.8125 c -0.711022,-4.092698 0.183989,-8.44675 2.199219,-12.183594 a 2.0850569,2.0850569 0 0 0 0.0098,-0.02148 c 3.48517,-6.636065 9.511271,-11.759681 16.09961,-15.751953 10.066314,-6.030065 21.519043,-9.59469 33.160156,-11.828125 11.12249,-2.112323 22.49783,-2.927645 33.87305,-2.94336 z" /><path
     id="path414"
     style="color:#000000;font-style:normal;font-variant:normal;font-weight:normal;font-stretch:normal;font-size:medium;line-height:normal;font-family:sans-serif;font-variant-ligatures:normal;font-variant-position:normal;font-variant-caps:normal;font-variant-numeric:normal;font-variant-alternates:normal;font-feature-settings:normal;text-indent:0;text-align:start;text-decoration:none;text-decoration-line:none;text-decoration-style:solid;text-decoration-color:#000000;letter-spacing:normal;word-spacing:normal;text-transform:none;writing-mode:lr-tb;direction:ltr;text-orientation:mixed;dominant-baseline:auto;baseline-shift:baseline;text-anchor:start;white-space:normal;shape-padding:0;clip-rule:nonzero;display:none;overflow:visible;visibility:visible;opacity:1;isolation:auto;mix-blend-mode:normal;color-interpolation:sRGB;color-interpolation-filters:linearRGB;solid-color:#000000;solid-opacity:1;vector-effect:none;fill:#000000;fill-opacity:1;fill-rule:nonzero;stroke:none;stroke-width:20;stroke-linecap:round;stroke-linejoin:round;stroke-miterlimit:4;stroke-dasharray:none;stroke-dashoffset:0;stroke-opacity:1;marker:none;paint-order:stroke fill markers;color-rendering:auto;image-rendering:auto;shape-rendering:auto;text-rendering:auto;enable-background:accumulate"
     d="M 136.64844,0 C 86.660578,0 54.240483,14.364448 38.642578,34.992188 c -7.798952,10.313868 -11.0865,22.45553 -9.054687,33.867187 1.693807,9.513254 7.034121,18.18184 15.003906,24.800781 L 29.884766,258.54297 c -2.182262,15.86117 5.20405,29.75943 13.634765,39.75586 4.250211,5.03953 8.875594,9.21589 13.304688,12.44531 4.429093,3.22942 8.270586,5.5734 13.066406,6.77148 5.644214,1.41008 46.471355,11.36648 65.015625,11.24415 8.58399,-0.0566 22.4325,-2.19432 35.94141,-4.58008 6.75445,-1.19288 13.2194,-2.45805 18.41211,-3.61719 2.59634,-0.57957 4.86577,-1.12939 6.79101,-1.66406 1.92524,-0.53468 2.98507,-0.60484 5.63672,-2.10352 4.12428,-2.33098 13.99473,-7.44772 22.71289,-15.82226 8.71816,-8.37456 16.84932,-21.20083 15.38672,-37.27149 l 0.006,0.0527 -14.5625,-169.888676 c 8.02584,-6.588148 13.53024,-15.191309 15.53515,-24.693359 2.37908,-11.275207 -0.3188,-23.482747 -7.67968,-33.914063 C 218.36417,14.395183 186.63629,0 136.64844,0 Z m 0,8.5 c 48.32397,0 77.13488,14.146292 89.49218,31.658203 6.17869,8.755956 8.18249,18.376839 6.3086,27.257813 -1.83904,8.7158 -7.39675,16.667579 -16.0918,22.46289 l 14.96289,174.574214 0.002,0.0254 c 1.8576,12.67139 -4.47694,22.91249 -12.25977,30.3789 -7.80222,7.48502 -17.13411,12.37586 -21.71875,14.6836 -0.8971,0.45156 -2.11987,0.77154 -3.94922,1.21679 -1.82935,0.44525 -4.16923,0.94712 -6.87109,1.48438 -5.40375,1.07452 -12.24894,2.28755 -19.22071,3.43359 -6.97175,1.14604 -14.06718,2.22419 -19.96875,3.02344 -5.90155,0.79925 -10.53075,1.32547 -12.89062,1.35547 -2.44773,0.0311 -7.38646,-0.56838 -13.79883,-1.50391 -6.41237,-0.93552 -14.17587,-2.21883 -21.787108,-3.5918 -7.611231,-1.37295 -15.067034,-2.83453 -20.867188,-4.1289 -2.900076,-0.64719 -5.383528,-1.25099 -7.287109,-1.78906 -0.95179,-0.26904 -1.757882,-0.52201 -2.416016,-0.76368 -0.658132,-0.24166 -1.134643,-0.41773 -1.638671,-0.79882 -3.576583,-2.70422 -11.720262,-8.59631 -18.439454,-16.83985 -6.694097,-8.21274 -12.060877,-18.92635 -9.875,-31.16406 L 53.476562,89.703125 C 44.832341,83.918975 39.496405,76.015011 37.957031,67.369141 36.372156,58.4677 38.814279,48.857479 45.421875,40.119141 58.637068,22.642462 88.324459,8.5 136.64844,8.5 Z" /><path
     style="color:#000000;font-style:normal;font-variant:normal;font-weight:normal;font-stretch:normal;font-size:medium;line-height:normal;font-family:sans-serif;font-variant-ligatures:normal;font-variant-position:normal;font-variant-caps:normal;font-variant-numeric:normal;font-variant-alternates:normal;font-feature-settings:normal;text-indent:0;text-align:start;text-decoration:none;text-decoration-line:none;text-decoration-style:solid;text-decoration-color:#000000;letter-spacing:normal;word-spacing:normal;text-transform:none;writing-mode:lr-tb;direction:ltr;text-orientation:mixed;dominant-baseline:auto;baseline-shift:baseline;text-anchor:start;white-space:normal;shape-padding:0;clip-rule:nonzero;display:inline;overflow:visible;visibility:visible;opacity:1;isolation:auto;mix-blend-mode:normal;color-interpolation:sRGB;color-interpolation-filters:linearRGB;solid-color:#000000;solid-opacity:1;vector-effect:none;fill:#000000;fill-opacity:1;fill-rule:nonzero;stroke:none;stroke-width:12.69188118;stroke-linecap:round;stroke-linejoin:round;stroke-miterlimit:4;stroke-dasharray:none;stroke-dashoffset:0;stroke-opacity:1;marker:none;paint-order:stroke fill markers;color-rendering:auto;image-rendering:auto;shape-rendering:auto;text-rendering:auto;enable-background:accumulate"
     d="m 92.240161,120.06641 a 6.3465752,6.3465752 0 0 0 -6.128906,5.90625 L 73.521411,277.13672 a 6.3465752,6.3465752 0 1 0 12.648438,1.05273 L 98.759693,127.02734 a 6.3465752,6.3465752 0 0 0 -6.519532,-6.96093 z"
     id="path4567"
     inkscape:connector-curvature="0" /><path
     style="color:#000000;font-style:normal;font-variant:normal;font-weight:normal;font-stretch:normal;font-size:medium;line-height:normal;font-family:sans-serif;font-variant-ligatures:normal;font-variant-position:normal;font-variant-caps:normal;font-variant-numeric:normal;font-variant-alternates:normal;font-feature-settings:normal;text-indent:0;text-align:start;text-decoration:none;text-decoration-line:none;text-decoration-style:solid;text-decoration-color:#000000;letter-spacing:normal;word-spacing:normal;text-transform:none;writing-mode:lr-tb;direction:ltr;text-orientation:mixed;dominant-baseline:auto;baseline-shift:baseline;text-anchor:start;white-space:normal;shape-padding:0;clip-rule:nonzero;display:inline;overflow:visible;visibility:visible;opacity:1;isolation:auto;mix-blend-mode:normal;color-interpolation:sRGB;color-interpolation-filters:linearRGB;solid-color:#000000;solid-opacity:1;vector-effect:none;fill:#000000;fill-opacity:1;fill-rule:nonzero;stroke:none;stroke-width:13.14656544;stroke-linecap:round;stroke-linejoin:round;stroke-miterlimit:4;stroke-dasharray:none;stroke-dashoffset:0;stroke-opacity:1;marker:none;paint-order:stroke fill markers;color-rendering:auto;image-rendering:auto;shape-rendering:auto;text-rendering:auto;enable-background:accumulate"
     d="m 134.7304,125.74219 a 6.57394,6.57394 0 0 0 -6.47461,6.66601 v 157.0586 a 6.57394,6.57394 0 1 0 13.14648,0 V 132.4082 a 6.57394,6.57394 0 0 0 -6.67187,-6.66601 z"
     id="path4569"
     inkscape:connector-curvature="0" /><path
     style="color:#000000;font-style:normal;font-variant:normal;font-weight:normal;font-stretch:normal;font-size:medium;line-height:normal;font-family:sans-serif;font-variant-ligatures:normal;font-variant-position:normal;font-variant-caps:normal;font-variant-numeric:normal;font-variant-alternates:normal;font-feature-settings:normal;text-indent:0;text-align:start;text-decoration:none;text-decoration-line:none;text-decoration-style:solid;text-decoration-color:#000000;letter-spacing:normal;word-spacing:normal;text-transform:none;writing-mode:lr-tb;direction:ltr;text-orientation:mixed;dominant-baseline:auto;baseline-shift:baseline;text-anchor:start;white-space:normal;shape-padding:0;clip-rule:nonzero;display:inline;overflow:visible;visibility:visible;opacity:1;isolation:auto;mix-blend-mode:normal;color-interpolation:sRGB;color-interpolation-filters:linearRGB;solid-color:#000000;solid-opacity:1;vector-effect:none;fill:#000000;fill-opacity:1;fill-rule:nonzero;stroke:none;stroke-width:12.69913578;stroke-linecap:round;stroke-linejoin:round;stroke-miterlimit:4;stroke-dasharray:none;stroke-dashoffset:0;stroke-opacity:1;marker:none;paint-order:stroke fill markers;color-rendering:auto;image-rendering:auto;shape-rendering:auto;text-rendering:auto;enable-background:accumulate"
     d="m 179.55462,120.0625 a 6.3502028,6.3502028 0 0 0 -6.47071,6.83789 l 9.56446,151.33984 a 6.3502028,6.3502028 0 1 0 12.67383,-0.80078 l -9.56446,-151.33984 a 6.3502028,6.3502028 0 0 0 -6.20312,-6.03711 z"
     id="path4571"
     inkscape:connector-curvature="0" /><path
     style="color:#000000;font-style:normal;font-variant:normal;font-weight:normal;font-stretch:normal;font-size:medium;line-height:normal;font-family:sans-serif;font-variant-ligatures:normal;font-variant-position:normal;font-variant-caps:normal;font-variant-numeric:normal;font-variant-alternates:normal;font-feature-settings:normal;text-indent:0;text-align:start;text-decoration:none;text-decoration-line:none;text-decoration-style:solid;text-decoration-color:#000000;letter-spacing:normal;word-spacing:normal;text-transform:none;writing-mode:lr-tb;direction:ltr;text-orientation:mixed;dominant-baseline:auto;baseline-shift:baseline;text-anchor:start;white-space:normal;shape-padding:0;clip-rule:nonzero;display:inline;overflow:visible;visibility:visible;opacity:1;isolation:auto;mix-blend-mode:normal;color-interpolation:sRGB;color-interpolation-filters:linearRGB;solid-color:#000000;solid-opacity:1;vector-effect:none;fill:#000000;fill-opacity:1;fill-rule:nonzero;stroke:none;stroke-width:20;stroke-linecap:round;stroke-linejoin:round;stroke-miterlimit:4;stroke-dasharray:none;stroke-dashoffset:0;stroke-opacity:1;marker:none;paint-order:stroke fill markers;color-rendering:auto;image-rendering:auto;shape-rendering:auto;text-rendering:auto;enable-background:accumulate"
     d="m 114.82805,31.607422 a 10.001,10.001 0 1 0 0,20 10.001,10.001 0 1 0 0,-20 z"
     id="path4577"
     inkscape:connector-curvature="0" /><path
     style="color:#000000;font-style:normal;font-variant:normal;font-weight:normal;font-stretch:normal;font-size:medium;line-height:normal;font-family:sans-serif;font-variant-ligatures:normal;font-variant-position:normal;font-variant-caps:normal;font-variant-numeric:normal;font-variant-alternates:normal;font-feature-settings:normal;text-indent:0;text-align:start;text-decoration:none;text-decoration-line:none;text-decoration-style:solid;text-decoration-color:#000000;letter-spacing:normal;word-spacing:normal;text-transform:none;writing-mode:lr-tb;direction:ltr;text-orientation:mixed;dominant-baseline:auto;baseline-shift:baseline;text-anchor:start;white-space:normal;shape-padding:0;clip-rule:nonzero;display:inline;overflow:visible;visibility:visible;opacity:1;isolation:auto;mix-blend-mode:normal;color-interpolation:sRGB;color-interpolation-filters:linearRGB;solid-color:#000000;solid-opacity:1;vector-effect:none;fill:#000000;fill-opacity:1;fill-rule:nonzero;stroke:none;stroke-width:20;stroke-linecap:round;stroke-linejoin:round;stroke-miterlimit:4;stroke-dasharray:none;stroke-dashoffset:0;stroke-opacity:1;marker:none;paint-order:stroke fill markers;color-rendering:auto;image-rendering:auto;shape-rendering:auto;text-rendering:auto;enable-background:accumulate"
     d="m 154.82805,31.607422 a 10.001,10.001 0 1 0 0,20 10.001,10.001 0 1 0 0,-20 z"
     id="path4579"
     inkscape:connector-curvature="0" /><path
     style="color:#000000;font-style:normal;font-variant:normal;font-weight:normal;font-stretch:normal;font-size:medium;line-height:normal;font-family:sans-serif;font-variant-ligatures:normal;font-variant-position:normal;font-variant-caps:normal;font-variant-numeric:normal;font-variant-alternates:normal;font-feature-settings:normal;text-indent:0;text-align:start;text-decoration:none;text-decoration-line:none;text-decoration-style:solid;text-decoration-color:#000000;letter-spacing:normal;word-spacing:normal;text-transform:none;writing-mode:lr-tb;direction:ltr;text-orientation:mixed;dominant-baseline:auto;baseline-shift:baseline;text-anchor:start;white-space:normal;shape-padding:0;clip-rule:nonzero;display:inline;overflow:visible;visibility:visible;opacity:1;isolation:auto;mix-blend-mode:normal;color-interpolation:sRGB;color-interpolation-filters:linearRGB;solid-color:#000000;solid-opacity:1;vector-effect:none;fill:#000000;fill-opacity:1;fill-rule:nonzero;stroke:none;stroke-width:12;stroke-linecap:round;stroke-linejoin:round;stroke-miterlimit:4;stroke-dasharray:none;stroke-dashoffset:0;stroke-opacity:1;marker:none;paint-order:stroke fill markers;color-rendering:auto;image-rendering:auto;shape-rendering:auto;text-rendering:auto;enable-background:accumulate"
     d="m 79.441333,86.037109 a 6.0006,6.0006 0 0 0 -2.125,11.699219 C 116.94088,111.2946 155.15116,111.16769 191.23821,98.291016 a 6.0006,6.0006 0 1 0 -4.0332,-11.300782 C 153.59236,98.983988 118.59387,99.177441 81.201099,86.382812 a 6.0006,6.0006 0 0 0 -1.759766,-0.345703 z"
     id="path4575-3"
     inkscape:connector-curvature="0" /></svg>
