<?xml version="1.0" encoding="UTF-8"?>
<svg xmlns="http://www.w3.org/2000/svg" xmlns:xlink="http://www.w3.org/1999/xlink" width="26.044mm" height="56.671mm" viewBox="186.977921 -213.297516 26.044159 56.670654">
    <path transform="matrix(1,0,0,-1,-0.000259,-0.262115)" style="stroke:#00e000;stroke-width:0.05mm;fill:none" d="M206.626953,163.56665L203.214111,195.409668C203.088165,197.103485,204.657669,198.680069,206.2883,198.603027C206.297226,198.6026,211.08728,198.262177,211.087204,198.261993C211.818863,198.225098,213.03009,198.632813,213.022339,200.098969C212.985184,207.125854,207.128372,213.028824,199.988007,213.0354C192.828659,213.041992,186.97876,207.181427,186.97818,200.163971C186.978043,198.517487,188.274399,198.233551,188.846191,198.257324C188.847382,198.25737,193.667694,198.602539,193.674316,198.603027C195.501083,198.738495,196.974838,197.004349,196.785889,195.409668L193.373047,163.56665C193.117615,160.156769,195.724976,156.297119,199.999725,156.364746C204.171295,156.43074,206.897141,160.086243,206.626953,163.56665z"/>
    <circle transform="matrix(1,0,0,-1,200,-163)" style="stroke:none;fill:#ff0000;fill-rule:evenodd" r="2.5" cx="0" cy="0"/>
</svg>
